<?xml version="1.0" encoding="UTF-8" standalone="no"?>
<!DOCTYPE svg PUBLIC "-//W3C//DTD SVG 1.1//EN"
 "http://www.w3.org/Graphics/SVG/1.1/DTD/svg11.dtd">
<!-- Generated by graphviz version 2.40.1 (20161225.0304)
 -->
<!-- Title: G Pages: 1 -->
<svg width="1080pt" height="47pt"
 viewBox="0.00 0.00 1080.00 46.73" xmlns="http://www.w3.org/2000/svg" xmlns:xlink="http://www.w3.org/1999/xlink">
<g id="graph0" class="graph" transform="scale(.1877 .1877) rotate(0) translate(4 245)">
<title>G</title>
<polygon fill="#ffffff" stroke="transparent" points="-4,4 -4,-245 5751,-245 5751,4 -4,4"/>
<g id="clust1" class="cluster">
<title>cluster_prep</title>
<path fill="#777777" fill-opacity="0.266667" stroke="#000000" d="M94,-61C94,-61 140,-61 140,-61 146,-61 152,-67 152,-73 152,-73 152,-124 152,-124 152,-130 146,-136 140,-136 140,-136 94,-136 94,-136 88,-136 82,-130 82,-124 82,-124 82,-73 82,-73 82,-67 88,-61 94,-61"/>
<text text-anchor="middle" x="117" y="-120.8" font-family="Times,serif" font-size="14.00" fill="#000000">prep</text>
</g>
<g id="clust2" class="cluster">
<title>cluster_layer1</title>
<path fill="#777777" fill-opacity="0.266667" stroke="#000000" d="M176,-25C176,-25 1408,-25 1408,-25 1414,-25 1420,-31 1420,-37 1420,-37 1420,-176 1420,-176 1420,-182 1414,-188 1408,-188 1408,-188 176,-188 176,-188 170,-188 164,-182 164,-176 164,-176 164,-37 164,-37 164,-31 170,-25 176,-25"/>
<text text-anchor="middle" x="792" y="-172.8" font-family="Times,serif" font-size="14.00" fill="#000000">layer1</text>
</g>
<g id="clust3" class="cluster">
<title>cluster_layer1/block0</title>
<path fill="#777777" fill-opacity="0.266667" stroke="#000000" d="M184,-33C184,-33 770,-33 770,-33 776,-33 782,-39 782,-45 782,-45 782,-145 782,-145 782,-151 776,-157 770,-157 770,-157 184,-157 184,-157 178,-157 172,-151 172,-145 172,-145 172,-45 172,-45 172,-39 178,-33 184,-33"/>
<text text-anchor="middle" x="477" y="-141.8" font-family="Times,serif" font-size="14.00" fill="#000000">block0</text>
</g>
<g id="clust4" class="cluster">
<title>cluster_layer1/block0/branch</title>
<path fill="#777777" fill-opacity="0.266667" stroke="#000000" d="M364,-41C364,-41 680,-41 680,-41 686,-41 692,-47 692,-53 692,-53 692,-104 692,-104 692,-110 686,-116 680,-116 680,-116 364,-116 364,-116 358,-116 352,-110 352,-104 352,-104 352,-53 352,-53 352,-47 358,-41 364,-41"/>
<text text-anchor="middle" x="522" y="-100.8" font-family="Times,serif" font-size="14.00" fill="#000000">branch</text>
</g>
<g id="clust5" class="cluster">
<title>cluster_layer1/block1</title>
<path fill="#777777" fill-opacity="0.266667" stroke="#000000" d="M814,-33C814,-33 1400,-33 1400,-33 1406,-33 1412,-39 1412,-45 1412,-45 1412,-145 1412,-145 1412,-151 1406,-157 1400,-157 1400,-157 814,-157 814,-157 808,-157 802,-151 802,-145 802,-145 802,-45 802,-45 802,-39 808,-33 814,-33"/>
<text text-anchor="middle" x="1107" y="-141.8" font-family="Times,serif" font-size="14.00" fill="#000000">block1</text>
</g>
<g id="clust6" class="cluster">
<title>cluster_layer1/block1/branch</title>
<path fill="#777777" fill-opacity="0.266667" stroke="#000000" d="M994,-41C994,-41 1310,-41 1310,-41 1316,-41 1322,-47 1322,-53 1322,-53 1322,-104 1322,-104 1322,-110 1316,-116 1310,-116 1310,-116 994,-116 994,-116 988,-116 982,-110 982,-104 982,-104 982,-53 982,-53 982,-47 988,-41 994,-41"/>
<text text-anchor="middle" x="1152" y="-100.8" font-family="Times,serif" font-size="14.00" fill="#000000">branch</text>
</g>
<g id="clust7" class="cluster">
<title>cluster_layer2</title>
<path fill="#777777" fill-opacity="0.266667" stroke="#000000" d="M1440,-16C1440,-16 2672,-16 2672,-16 2678,-16 2684,-22 2684,-28 2684,-28 2684,-201 2684,-201 2684,-207 2678,-213 2672,-213 2672,-213 1440,-213 1440,-213 1434,-213 1428,-207 1428,-201 1428,-201 1428,-28 1428,-28 1428,-22 1434,-16 1440,-16"/>
<text text-anchor="middle" x="2056" y="-197.8" font-family="Times,serif" font-size="14.00" fill="#000000">layer2</text>
</g>
<g id="clust8" class="cluster">
<title>cluster_layer2/block0</title>
<path fill="#777777" fill-opacity="0.266667" stroke="#000000" d="M1448,-24C1448,-24 2034,-24 2034,-24 2040,-24 2046,-30 2046,-36 2046,-36 2046,-170 2046,-170 2046,-176 2040,-182 2034,-182 2034,-182 1448,-182 1448,-182 1442,-182 1436,-176 1436,-170 1436,-170 1436,-36 1436,-36 1436,-30 1442,-24 1448,-24"/>
<text text-anchor="middle" x="1741" y="-166.8" font-family="Times,serif" font-size="14.00" fill="#000000">block0</text>
</g>
<g id="clust9" class="cluster">
<title>cluster_layer2/block0/branch</title>
<path fill="#777777" fill-opacity="0.266667" stroke="#000000" d="M1628,-32C1628,-32 1944,-32 1944,-32 1950,-32 1956,-38 1956,-44 1956,-44 1956,-95 1956,-95 1956,-101 1950,-107 1944,-107 1944,-107 1628,-107 1628,-107 1622,-107 1616,-101 1616,-95 1616,-95 1616,-44 1616,-44 1616,-38 1622,-32 1628,-32"/>
<text text-anchor="middle" x="1786" y="-91.8" font-family="Times,serif" font-size="14.00" fill="#000000">branch</text>
</g>
<g id="clust10" class="cluster">
<title>cluster_layer2/block1</title>
<path fill="#777777" fill-opacity="0.266667" stroke="#000000" d="M2078,-24C2078,-24 2664,-24 2664,-24 2670,-24 2676,-30 2676,-36 2676,-36 2676,-136 2676,-136 2676,-142 2670,-148 2664,-148 2664,-148 2078,-148 2078,-148 2072,-148 2066,-142 2066,-136 2066,-136 2066,-36 2066,-36 2066,-30 2072,-24 2078,-24"/>
<text text-anchor="middle" x="2371" y="-132.8" font-family="Times,serif" font-size="14.00" fill="#000000">block1</text>
</g>
<g id="clust11" class="cluster">
<title>cluster_layer2/block1/branch</title>
<path fill="#777777" fill-opacity="0.266667" stroke="#000000" d="M2258,-32C2258,-32 2574,-32 2574,-32 2580,-32 2586,-38 2586,-44 2586,-44 2586,-95 2586,-95 2586,-101 2580,-107 2574,-107 2574,-107 2258,-107 2258,-107 2252,-107 2246,-101 2246,-95 2246,-95 2246,-44 2246,-44 2246,-38 2252,-32 2258,-32"/>
<text text-anchor="middle" x="2416" y="-91.8" font-family="Times,serif" font-size="14.00" fill="#000000">branch</text>
</g>
<g id="clust12" class="cluster">
<title>cluster_layer3</title>
<path fill="#777777" fill-opacity="0.266667" stroke="#000000" d="M2704,-36C2704,-36 3936,-36 3936,-36 3942,-36 3948,-42 3948,-48 3948,-48 3948,-221 3948,-221 3948,-227 3942,-233 3936,-233 3936,-233 2704,-233 2704,-233 2698,-233 2692,-227 2692,-221 2692,-221 2692,-48 2692,-48 2692,-42 2698,-36 2704,-36"/>
<text text-anchor="middle" x="3320" y="-217.8" font-family="Times,serif" font-size="14.00" fill="#000000">layer3</text>
</g>
<g id="clust13" class="cluster">
<title>cluster_layer3/block0</title>
<path fill="#777777" fill-opacity="0.266667" stroke="#000000" d="M2712,-44C2712,-44 3298,-44 3298,-44 3304,-44 3310,-50 3310,-56 3310,-56 3310,-190 3310,-190 3310,-196 3304,-202 3298,-202 3298,-202 2712,-202 2712,-202 2706,-202 2700,-196 2700,-190 2700,-190 2700,-56 2700,-56 2700,-50 2706,-44 2712,-44"/>
<text text-anchor="middle" x="3005" y="-186.8" font-family="Times,serif" font-size="14.00" fill="#000000">block0</text>
</g>
<g id="clust14" class="cluster">
<title>cluster_layer3/block0/branch</title>
<path fill="#777777" fill-opacity="0.266667" stroke="#000000" d="M2892,-52C2892,-52 3208,-52 3208,-52 3214,-52 3220,-58 3220,-64 3220,-64 3220,-115 3220,-115 3220,-121 3214,-127 3208,-127 3208,-127 2892,-127 2892,-127 2886,-127 2880,-121 2880,-115 2880,-115 2880,-64 2880,-64 2880,-58 2886,-52 2892,-52"/>
<text text-anchor="middle" x="3050" y="-111.8" font-family="Times,serif" font-size="14.00" fill="#000000">branch</text>
</g>
<g id="clust15" class="cluster">
<title>cluster_layer3/block1</title>
<path fill="#777777" fill-opacity="0.266667" stroke="#000000" d="M3342,-44C3342,-44 3928,-44 3928,-44 3934,-44 3940,-50 3940,-56 3940,-56 3940,-156 3940,-156 3940,-162 3934,-168 3928,-168 3928,-168 3342,-168 3342,-168 3336,-168 3330,-162 3330,-156 3330,-156 3330,-56 3330,-56 3330,-50 3336,-44 3342,-44"/>
<text text-anchor="middle" x="3635" y="-152.8" font-family="Times,serif" font-size="14.00" fill="#000000">block1</text>
</g>
<g id="clust16" class="cluster">
<title>cluster_layer3/block1/branch</title>
<path fill="#777777" fill-opacity="0.266667" stroke="#000000" d="M3522,-52C3522,-52 3838,-52 3838,-52 3844,-52 3850,-58 3850,-64 3850,-64 3850,-115 3850,-115 3850,-121 3844,-127 3838,-127 3838,-127 3522,-127 3522,-127 3516,-127 3510,-121 3510,-115 3510,-115 3510,-64 3510,-64 3510,-58 3516,-52 3522,-52"/>
<text text-anchor="middle" x="3680" y="-111.8" font-family="Times,serif" font-size="14.00" fill="#000000">branch</text>
</g>
<g id="clust17" class="cluster">
<title>cluster_layer4</title>
<path fill="#777777" fill-opacity="0.266667" stroke="#000000" d="M3968,-8C3968,-8 5200,-8 5200,-8 5206,-8 5212,-14 5212,-20 5212,-20 5212,-193 5212,-193 5212,-199 5206,-205 5200,-205 5200,-205 3968,-205 3968,-205 3962,-205 3956,-199 3956,-193 3956,-193 3956,-20 3956,-20 3956,-14 3962,-8 3968,-8"/>
<text text-anchor="middle" x="4584" y="-189.8" font-family="Times,serif" font-size="14.00" fill="#000000">layer4</text>
</g>
<g id="clust18" class="cluster">
<title>cluster_layer4/block0</title>
<path fill="#777777" fill-opacity="0.266667" stroke="#000000" d="M3976,-16C3976,-16 4562,-16 4562,-16 4568,-16 4574,-22 4574,-28 4574,-28 4574,-162 4574,-162 4574,-168 4568,-174 4562,-174 4562,-174 3976,-174 3976,-174 3970,-174 3964,-168 3964,-162 3964,-162 3964,-28 3964,-28 3964,-22 3970,-16 3976,-16"/>
<text text-anchor="middle" x="4269" y="-158.8" font-family="Times,serif" font-size="14.00" fill="#000000">block0</text>
</g>
<g id="clust19" class="cluster">
<title>cluster_layer4/block0/branch</title>
<path fill="#777777" fill-opacity="0.266667" stroke="#000000" d="M4156,-24C4156,-24 4472,-24 4472,-24 4478,-24 4484,-30 4484,-36 4484,-36 4484,-87 4484,-87 4484,-93 4478,-99 4472,-99 4472,-99 4156,-99 4156,-99 4150,-99 4144,-93 4144,-87 4144,-87 4144,-36 4144,-36 4144,-30 4150,-24 4156,-24"/>
<text text-anchor="middle" x="4314" y="-83.8" font-family="Times,serif" font-size="14.00" fill="#000000">branch</text>
</g>
<g id="clust20" class="cluster">
<title>cluster_layer4/block1</title>
<path fill="#777777" fill-opacity="0.266667" stroke="#000000" d="M4606,-16C4606,-16 5192,-16 5192,-16 5198,-16 5204,-22 5204,-28 5204,-28 5204,-128 5204,-128 5204,-134 5198,-140 5192,-140 5192,-140 4606,-140 4606,-140 4600,-140 4594,-134 4594,-128 4594,-128 4594,-28 4594,-28 4594,-22 4600,-16 4606,-16"/>
<text text-anchor="middle" x="4899" y="-124.8" font-family="Times,serif" font-size="14.00" fill="#000000">block1</text>
</g>
<g id="clust21" class="cluster">
<title>cluster_layer4/block1/branch</title>
<path fill="#777777" fill-opacity="0.266667" stroke="#000000" d="M4786,-24C4786,-24 5102,-24 5102,-24 5108,-24 5114,-30 5114,-36 5114,-36 5114,-87 5114,-87 5114,-93 5108,-99 5102,-99 5102,-99 4786,-99 4786,-99 4780,-99 4774,-93 4774,-87 4774,-87 4774,-36 4774,-36 4774,-30 4780,-24 4786,-24"/>
<text text-anchor="middle" x="4944" y="-83.8" font-family="Times,serif" font-size="14.00" fill="#000000">branch</text>
</g>
<g id="clust22" class="cluster">
<title>cluster_final</title>
<path fill="#777777" fill-opacity="0.266667" stroke="#000000" d="M5236,-36C5236,-36 5653,-36 5653,-36 5659,-36 5665,-42 5665,-48 5665,-48 5665,-153 5665,-153 5665,-159 5659,-165 5653,-165 5653,-165 5236,-165 5236,-165 5230,-165 5224,-159 5224,-153 5224,-153 5224,-48 5224,-48 5224,-42 5230,-36 5236,-36"/>
<text text-anchor="middle" x="5444.5" y="-149.8" font-family="Times,serif" font-size="14.00" fill="#000000">final</text>
</g>
<!-- prep/conv -->
<g id="node1" class="node">
<title>prep/conv</title>
<g id="a_node1"><a xlink:title="Conv2d(3, 64, kernel_size=(3, 3), stride=(1, 1), padding=(1, 1), bias=False)">
<path fill="#bebada" stroke="#000000" d="M132,-105C132,-105 102,-105 102,-105 96,-105 90,-99 90,-93 90,-93 90,-81 90,-81 90,-75 96,-69 102,-69 102,-69 132,-69 132,-69 138,-69 144,-75 144,-81 144,-81 144,-93 144,-93 144,-99 138,-105 132,-105"/>
<text text-anchor="middle" x="117" y="-83.3" font-family="Times,serif" font-size="14.00" fill="#000000">conv</text>
</a>
</g>
</g>
<!-- layer1/block0/bn1 -->
<g id="node2" class="node">
<title>layer1/block0/bn1</title>
<g id="a_node2"><a xlink:title="BatchNorm(64, eps=1e&#45;05, momentum=0.1, affine=True, track_running_stats=True)">
<path fill="#ffffb3" stroke="#000000" d="M222,-105C222,-105 192,-105 192,-105 186,-105 180,-99 180,-93 180,-93 180,-81 180,-81 180,-75 186,-69 192,-69 192,-69 222,-69 222,-69 228,-69 234,-75 234,-81 234,-81 234,-93 234,-93 234,-99 228,-105 222,-105"/>
<text text-anchor="middle" x="207" y="-83.3" font-family="Times,serif" font-size="14.00" fill="#000000">bn1</text>
</a>
</g>
</g>
<!-- prep/conv&#45;&gt;layer1/block0/bn1 -->
<g id="edge2" class="edge">
<title>prep/conv&#45;&gt;layer1/block0/bn1</title>
<path fill="none" stroke="#000000" d="M144.003,-87C152.0277,-87 160.9665,-87 169.5309,-87"/>
<polygon fill="#000000" stroke="#000000" points="169.7051,-90.5001 179.705,-87 169.705,-83.5001 169.7051,-90.5001"/>
</g>
<!-- layer1/block0/relu1 -->
<g id="node3" class="node">
<title>layer1/block0/relu1</title>
<g id="a_node3"><a xlink:title="ReLU(inplace=True)">
<path fill="#fb8072" stroke="#000000" d="M312,-105C312,-105 282,-105 282,-105 276,-105 270,-99 270,-93 270,-93 270,-81 270,-81 270,-75 276,-69 282,-69 282,-69 312,-69 312,-69 318,-69 324,-75 324,-81 324,-81 324,-93 324,-93 324,-99 318,-105 312,-105"/>
<text text-anchor="middle" x="297" y="-83.3" font-family="Times,serif" font-size="14.00" fill="#000000">relu1</text>
</a>
</g>
</g>
<!-- layer1/block0/bn1&#45;&gt;layer1/block0/relu1 -->
<g id="edge3" class="edge">
<title>layer1/block0/bn1&#45;&gt;layer1/block0/relu1</title>
<path fill="none" stroke="#000000" d="M234.003,-87C242.0277,-87 250.9665,-87 259.5309,-87"/>
<polygon fill="#000000" stroke="#000000" points="259.7051,-90.5001 269.705,-87 259.705,-83.5001 259.7051,-90.5001"/>
</g>
<!-- layer1/block0/branch/conv1 -->
<g id="node4" class="node">
<title>layer1/block0/branch/conv1</title>
<g id="a_node4"><a xlink:title="Conv2d(64, 64, kernel_size=(3, 3), stride=(1, 1), padding=(1, 1), bias=False)">
<path fill="#bebada" stroke="#000000" d="M402,-85C402,-85 372,-85 372,-85 366,-85 360,-79 360,-73 360,-73 360,-61 360,-61 360,-55 366,-49 372,-49 372,-49 402,-49 402,-49 408,-49 414,-55 414,-61 414,-61 414,-73 414,-73 414,-79 408,-85 402,-85"/>
<text text-anchor="middle" x="387" y="-63.3" font-family="Times,serif" font-size="14.00" fill="#000000">conv1</text>
</a>
</g>
</g>
<!-- layer1/block0/relu1&#45;&gt;layer1/block0/branch/conv1 -->
<g id="edge4" class="edge">
<title>layer1/block0/relu1&#45;&gt;layer1/block0/branch/conv1</title>
<path fill="none" stroke="#000000" d="M324.003,-80.9993C332.1158,-79.1965 341.1631,-77.186 349.8131,-75.2638"/>
<polygon fill="#000000" stroke="#000000" points="350.7024,-78.6516 359.705,-73.0655 349.1839,-71.8183 350.7024,-78.6516"/>
</g>
<!-- layer1/block0/add -->
<g id="node8" class="node">
<title>layer1/block0/add</title>
<g id="a_node8"><a xlink:title="Add()">
<path fill="#8dd3c7" stroke="#000000" d="M762,-105C762,-105 732,-105 732,-105 726,-105 720,-99 720,-93 720,-93 720,-81 720,-81 720,-75 726,-69 732,-69 732,-69 762,-69 762,-69 768,-69 774,-75 774,-81 774,-81 774,-93 774,-93 774,-99 768,-105 762,-105"/>
<text text-anchor="middle" x="747" y="-83.3" font-family="Times,serif" font-size="14.00" fill="#000000">add</text>
</a>
</g>
</g>
<!-- layer1/block0/relu1&#45;&gt;layer1/block0/add -->
<g id="edge8" class="edge">
<title>layer1/block0/relu1&#45;&gt;layer1/block0/add</title>
<path fill="none" stroke="#000000" d="M321.2203,-105.104C330.3892,-110.9663 341.2234,-116.7818 352,-120 405.2752,-135.9095 421.4,-125 477,-125 477,-125 477,-125 567,-125 622.6,-125 638.7248,-135.9095 692,-120 699.4089,-117.7875 706.845,-114.3474 713.7486,-110.5084"/>
<polygon fill="#000000" stroke="#000000" points="715.996,-113.2423 722.7797,-105.104 712.4015,-107.2356 715.996,-113.2423"/>
</g>
<!-- layer1/block0/branch/bn2 -->
<g id="node5" class="node">
<title>layer1/block0/branch/bn2</title>
<g id="a_node5"><a xlink:title="BatchNorm(64, eps=1e&#45;05, momentum=0.1, affine=True, track_running_stats=True)">
<path fill="#ffffb3" stroke="#000000" d="M492,-85C492,-85 462,-85 462,-85 456,-85 450,-79 450,-73 450,-73 450,-61 450,-61 450,-55 456,-49 462,-49 462,-49 492,-49 492,-49 498,-49 504,-55 504,-61 504,-61 504,-73 504,-73 504,-79 498,-85 492,-85"/>
<text text-anchor="middle" x="477" y="-63.3" font-family="Times,serif" font-size="14.00" fill="#000000">bn2</text>
</a>
</g>
</g>
<!-- layer1/block0/branch/conv1&#45;&gt;layer1/block0/branch/bn2 -->
<g id="edge5" class="edge">
<title>layer1/block0/branch/conv1&#45;&gt;layer1/block0/branch/bn2</title>
<path fill="none" stroke="#000000" d="M414.003,-67C422.0277,-67 430.9665,-67 439.5309,-67"/>
<polygon fill="#000000" stroke="#000000" points="439.7051,-70.5001 449.705,-67 439.705,-63.5001 439.7051,-70.5001"/>
</g>
<!-- layer1/block0/branch/relu2 -->
<g id="node6" class="node">
<title>layer1/block0/branch/relu2</title>
<g id="a_node6"><a xlink:title="ReLU(inplace=True)">
<path fill="#fb8072" stroke="#000000" d="M582,-85C582,-85 552,-85 552,-85 546,-85 540,-79 540,-73 540,-73 540,-61 540,-61 540,-55 546,-49 552,-49 552,-49 582,-49 582,-49 588,-49 594,-55 594,-61 594,-61 594,-73 594,-73 594,-79 588,-85 582,-85"/>
<text text-anchor="middle" x="567" y="-63.3" font-family="Times,serif" font-size="14.00" fill="#000000">relu2</text>
</a>
</g>
</g>
<!-- layer1/block0/branch/bn2&#45;&gt;layer1/block0/branch/relu2 -->
<g id="edge6" class="edge">
<title>layer1/block0/branch/bn2&#45;&gt;layer1/block0/branch/relu2</title>
<path fill="none" stroke="#000000" d="M504.003,-67C512.0277,-67 520.9665,-67 529.5309,-67"/>
<polygon fill="#000000" stroke="#000000" points="529.7051,-70.5001 539.705,-67 529.705,-63.5001 529.7051,-70.5001"/>
</g>
<!-- layer1/block0/branch/conv2 -->
<g id="node7" class="node">
<title>layer1/block0/branch/conv2</title>
<g id="a_node7"><a xlink:title="Conv2d(64, 64, kernel_size=(3, 3), stride=(1, 1), padding=(1, 1), bias=False)">
<path fill="#bebada" stroke="#000000" d="M672,-85C672,-85 642,-85 642,-85 636,-85 630,-79 630,-73 630,-73 630,-61 630,-61 630,-55 636,-49 642,-49 642,-49 672,-49 672,-49 678,-49 684,-55 684,-61 684,-61 684,-73 684,-73 684,-79 678,-85 672,-85"/>
<text text-anchor="middle" x="657" y="-63.3" font-family="Times,serif" font-size="14.00" fill="#000000">conv2</text>
</a>
</g>
</g>
<!-- layer1/block0/branch/relu2&#45;&gt;layer1/block0/branch/conv2 -->
<g id="edge7" class="edge">
<title>layer1/block0/branch/relu2&#45;&gt;layer1/block0/branch/conv2</title>
<path fill="none" stroke="#000000" d="M594.003,-67C602.0277,-67 610.9665,-67 619.5309,-67"/>
<polygon fill="#000000" stroke="#000000" points="619.7051,-70.5001 629.705,-67 619.705,-63.5001 619.7051,-70.5001"/>
</g>
<!-- layer1/block0/branch/conv2&#45;&gt;layer1/block0/add -->
<g id="edge9" class="edge">
<title>layer1/block0/branch/conv2&#45;&gt;layer1/block0/add</title>
<path fill="none" stroke="#000000" d="M684.003,-73.0007C692.1158,-74.8035 701.1631,-76.814 709.8131,-78.7362"/>
<polygon fill="#000000" stroke="#000000" points="709.1839,-82.1817 719.705,-80.9345 710.7024,-75.3484 709.1839,-82.1817"/>
</g>
<!-- layer1/block1/bn1 -->
<g id="node9" class="node">
<title>layer1/block1/bn1</title>
<g id="a_node9"><a xlink:title="BatchNorm(64, eps=1e&#45;05, momentum=0.1, affine=True, track_running_stats=True)">
<path fill="#ffffb3" stroke="#000000" d="M852,-105C852,-105 822,-105 822,-105 816,-105 810,-99 810,-93 810,-93 810,-81 810,-81 810,-75 816,-69 822,-69 822,-69 852,-69 852,-69 858,-69 864,-75 864,-81 864,-81 864,-93 864,-93 864,-99 858,-105 852,-105"/>
<text text-anchor="middle" x="837" y="-83.3" font-family="Times,serif" font-size="14.00" fill="#000000">bn1</text>
</a>
</g>
</g>
<!-- layer1/block0/add&#45;&gt;layer1/block1/bn1 -->
<g id="edge10" class="edge">
<title>layer1/block0/add&#45;&gt;layer1/block1/bn1</title>
<path fill="none" stroke="#000000" d="M774.003,-87C782.0277,-87 790.9665,-87 799.5309,-87"/>
<polygon fill="#000000" stroke="#000000" points="799.7051,-90.5001 809.705,-87 799.705,-83.5001 799.7051,-90.5001"/>
</g>
<!-- layer1/block1/relu1 -->
<g id="node10" class="node">
<title>layer1/block1/relu1</title>
<g id="a_node10"><a xlink:title="ReLU(inplace=True)">
<path fill="#fb8072" stroke="#000000" d="M942,-105C942,-105 912,-105 912,-105 906,-105 900,-99 900,-93 900,-93 900,-81 900,-81 900,-75 906,-69 912,-69 912,-69 942,-69 942,-69 948,-69 954,-75 954,-81 954,-81 954,-93 954,-93 954,-99 948,-105 942,-105"/>
<text text-anchor="middle" x="927" y="-83.3" font-family="Times,serif" font-size="14.00" fill="#000000">relu1</text>
</a>
</g>
</g>
<!-- layer1/block1/bn1&#45;&gt;layer1/block1/relu1 -->
<g id="edge11" class="edge">
<title>layer1/block1/bn1&#45;&gt;layer1/block1/relu1</title>
<path fill="none" stroke="#000000" d="M864.003,-87C872.0277,-87 880.9665,-87 889.5309,-87"/>
<polygon fill="#000000" stroke="#000000" points="889.7051,-90.5001 899.705,-87 889.705,-83.5001 889.7051,-90.5001"/>
</g>
<!-- layer1/block1/branch/conv1 -->
<g id="node11" class="node">
<title>layer1/block1/branch/conv1</title>
<g id="a_node11"><a xlink:title="Conv2d(64, 64, kernel_size=(3, 3), stride=(1, 1), padding=(1, 1), bias=False)">
<path fill="#bebada" stroke="#000000" d="M1032,-85C1032,-85 1002,-85 1002,-85 996,-85 990,-79 990,-73 990,-73 990,-61 990,-61 990,-55 996,-49 1002,-49 1002,-49 1032,-49 1032,-49 1038,-49 1044,-55 1044,-61 1044,-61 1044,-73 1044,-73 1044,-79 1038,-85 1032,-85"/>
<text text-anchor="middle" x="1017" y="-63.3" font-family="Times,serif" font-size="14.00" fill="#000000">conv1</text>
</a>
</g>
</g>
<!-- layer1/block1/relu1&#45;&gt;layer1/block1/branch/conv1 -->
<g id="edge12" class="edge">
<title>layer1/block1/relu1&#45;&gt;layer1/block1/branch/conv1</title>
<path fill="none" stroke="#000000" d="M954.003,-80.9993C962.1158,-79.1965 971.1631,-77.186 979.8131,-75.2638"/>
<polygon fill="#000000" stroke="#000000" points="980.7024,-78.6516 989.705,-73.0655 979.1839,-71.8183 980.7024,-78.6516"/>
</g>
<!-- layer1/block1/add -->
<g id="node15" class="node">
<title>layer1/block1/add</title>
<g id="a_node15"><a xlink:title="Add()">
<path fill="#8dd3c7" stroke="#000000" d="M1392,-105C1392,-105 1362,-105 1362,-105 1356,-105 1350,-99 1350,-93 1350,-93 1350,-81 1350,-81 1350,-75 1356,-69 1362,-69 1362,-69 1392,-69 1392,-69 1398,-69 1404,-75 1404,-81 1404,-81 1404,-93 1404,-93 1404,-99 1398,-105 1392,-105"/>
<text text-anchor="middle" x="1377" y="-83.3" font-family="Times,serif" font-size="14.00" fill="#000000">add</text>
</a>
</g>
</g>
<!-- layer1/block1/relu1&#45;&gt;layer1/block1/add -->
<g id="edge16" class="edge">
<title>layer1/block1/relu1&#45;&gt;layer1/block1/add</title>
<path fill="none" stroke="#000000" d="M951.2203,-105.104C960.3892,-110.9663 971.2234,-116.7818 982,-120 1035.2752,-135.9095 1051.4,-125 1107,-125 1107,-125 1107,-125 1197,-125 1252.6,-125 1268.7248,-135.9095 1322,-120 1329.4089,-117.7875 1336.845,-114.3474 1343.7486,-110.5084"/>
<polygon fill="#000000" stroke="#000000" points="1345.996,-113.2423 1352.7797,-105.104 1342.4015,-107.2356 1345.996,-113.2423"/>
</g>
<!-- layer1/block1/branch/bn2 -->
<g id="node12" class="node">
<title>layer1/block1/branch/bn2</title>
<g id="a_node12"><a xlink:title="BatchNorm(64, eps=1e&#45;05, momentum=0.1, affine=True, track_running_stats=True)">
<path fill="#ffffb3" stroke="#000000" d="M1122,-85C1122,-85 1092,-85 1092,-85 1086,-85 1080,-79 1080,-73 1080,-73 1080,-61 1080,-61 1080,-55 1086,-49 1092,-49 1092,-49 1122,-49 1122,-49 1128,-49 1134,-55 1134,-61 1134,-61 1134,-73 1134,-73 1134,-79 1128,-85 1122,-85"/>
<text text-anchor="middle" x="1107" y="-63.3" font-family="Times,serif" font-size="14.00" fill="#000000">bn2</text>
</a>
</g>
</g>
<!-- layer1/block1/branch/conv1&#45;&gt;layer1/block1/branch/bn2 -->
<g id="edge13" class="edge">
<title>layer1/block1/branch/conv1&#45;&gt;layer1/block1/branch/bn2</title>
<path fill="none" stroke="#000000" d="M1044.003,-67C1052.0277,-67 1060.9665,-67 1069.5309,-67"/>
<polygon fill="#000000" stroke="#000000" points="1069.7051,-70.5001 1079.705,-67 1069.705,-63.5001 1069.7051,-70.5001"/>
</g>
<!-- layer1/block1/branch/relu2 -->
<g id="node13" class="node">
<title>layer1/block1/branch/relu2</title>
<g id="a_node13"><a xlink:title="ReLU(inplace=True)">
<path fill="#fb8072" stroke="#000000" d="M1212,-85C1212,-85 1182,-85 1182,-85 1176,-85 1170,-79 1170,-73 1170,-73 1170,-61 1170,-61 1170,-55 1176,-49 1182,-49 1182,-49 1212,-49 1212,-49 1218,-49 1224,-55 1224,-61 1224,-61 1224,-73 1224,-73 1224,-79 1218,-85 1212,-85"/>
<text text-anchor="middle" x="1197" y="-63.3" font-family="Times,serif" font-size="14.00" fill="#000000">relu2</text>
</a>
</g>
</g>
<!-- layer1/block1/branch/bn2&#45;&gt;layer1/block1/branch/relu2 -->
<g id="edge14" class="edge">
<title>layer1/block1/branch/bn2&#45;&gt;layer1/block1/branch/relu2</title>
<path fill="none" stroke="#000000" d="M1134.003,-67C1142.0277,-67 1150.9665,-67 1159.5309,-67"/>
<polygon fill="#000000" stroke="#000000" points="1159.7051,-70.5001 1169.705,-67 1159.705,-63.5001 1159.7051,-70.5001"/>
</g>
<!-- layer1/block1/branch/conv2 -->
<g id="node14" class="node">
<title>layer1/block1/branch/conv2</title>
<g id="a_node14"><a xlink:title="Conv2d(64, 64, kernel_size=(3, 3), stride=(1, 1), padding=(1, 1), bias=False)">
<path fill="#bebada" stroke="#000000" d="M1302,-85C1302,-85 1272,-85 1272,-85 1266,-85 1260,-79 1260,-73 1260,-73 1260,-61 1260,-61 1260,-55 1266,-49 1272,-49 1272,-49 1302,-49 1302,-49 1308,-49 1314,-55 1314,-61 1314,-61 1314,-73 1314,-73 1314,-79 1308,-85 1302,-85"/>
<text text-anchor="middle" x="1287" y="-63.3" font-family="Times,serif" font-size="14.00" fill="#000000">conv2</text>
</a>
</g>
</g>
<!-- layer1/block1/branch/relu2&#45;&gt;layer1/block1/branch/conv2 -->
<g id="edge15" class="edge">
<title>layer1/block1/branch/relu2&#45;&gt;layer1/block1/branch/conv2</title>
<path fill="none" stroke="#000000" d="M1224.003,-67C1232.0277,-67 1240.9665,-67 1249.5309,-67"/>
<polygon fill="#000000" stroke="#000000" points="1249.7051,-70.5001 1259.705,-67 1249.705,-63.5001 1249.7051,-70.5001"/>
</g>
<!-- layer1/block1/branch/conv2&#45;&gt;layer1/block1/add -->
<g id="edge17" class="edge">
<title>layer1/block1/branch/conv2&#45;&gt;layer1/block1/add</title>
<path fill="none" stroke="#000000" d="M1314.003,-73.0007C1322.1158,-74.8035 1331.1631,-76.814 1339.8131,-78.7362"/>
<polygon fill="#000000" stroke="#000000" points="1339.1839,-82.1817 1349.705,-80.9345 1340.7024,-75.3484 1339.1839,-82.1817"/>
</g>
<!-- layer2/block0/bn1 -->
<g id="node16" class="node">
<title>layer2/block0/bn1</title>
<g id="a_node16"><a xlink:title="BatchNorm(64, eps=1e&#45;05, momentum=0.1, affine=True, track_running_stats=True)">
<path fill="#ffffb3" stroke="#000000" d="M1486,-105C1486,-105 1456,-105 1456,-105 1450,-105 1444,-99 1444,-93 1444,-93 1444,-81 1444,-81 1444,-75 1450,-69 1456,-69 1456,-69 1486,-69 1486,-69 1492,-69 1498,-75 1498,-81 1498,-81 1498,-93 1498,-93 1498,-99 1492,-105 1486,-105"/>
<text text-anchor="middle" x="1471" y="-83.3" font-family="Times,serif" font-size="14.00" fill="#000000">bn1</text>
</a>
</g>
</g>
<!-- layer1/block1/add&#45;&gt;layer2/block0/bn1 -->
<g id="edge18" class="edge">
<title>layer1/block1/add&#45;&gt;layer2/block0/bn1</title>
<path fill="none" stroke="#000000" d="M1404.1887,-87C1413.4446,-87 1423.9552,-87 1433.8551,-87"/>
<polygon fill="#000000" stroke="#000000" points="1433.8724,-90.5001 1443.8724,-87 1433.8724,-83.5001 1433.8724,-90.5001"/>
</g>
<!-- layer2/block0/relu1 -->
<g id="node17" class="node">
<title>layer2/block0/relu1</title>
<g id="a_node17"><a xlink:title="ReLU(inplace=True)">
<path fill="#fb8072" stroke="#000000" d="M1576,-105C1576,-105 1546,-105 1546,-105 1540,-105 1534,-99 1534,-93 1534,-93 1534,-81 1534,-81 1534,-75 1540,-69 1546,-69 1546,-69 1576,-69 1576,-69 1582,-69 1588,-75 1588,-81 1588,-81 1588,-93 1588,-93 1588,-99 1582,-105 1576,-105"/>
<text text-anchor="middle" x="1561" y="-83.3" font-family="Times,serif" font-size="14.00" fill="#000000">relu1</text>
</a>
</g>
</g>
<!-- layer2/block0/bn1&#45;&gt;layer2/block0/relu1 -->
<g id="edge19" class="edge">
<title>layer2/block0/bn1&#45;&gt;layer2/block0/relu1</title>
<path fill="none" stroke="#000000" d="M1498.003,-87C1506.0277,-87 1514.9665,-87 1523.5309,-87"/>
<polygon fill="#000000" stroke="#000000" points="1523.7051,-90.5001 1533.705,-87 1523.705,-83.5001 1523.7051,-90.5001"/>
</g>
<!-- layer2/block0/branch/conv1 -->
<g id="node18" class="node">
<title>layer2/block0/branch/conv1</title>
<g id="a_node18"><a xlink:title="Conv2d(64, 128, kernel_size=(3, 3), stride=(2, 2), padding=(1, 1), bias=False)">
<path fill="#bebada" stroke="#000000" d="M1666,-76C1666,-76 1636,-76 1636,-76 1630,-76 1624,-70 1624,-64 1624,-64 1624,-52 1624,-52 1624,-46 1630,-40 1636,-40 1636,-40 1666,-40 1666,-40 1672,-40 1678,-46 1678,-52 1678,-52 1678,-64 1678,-64 1678,-70 1672,-76 1666,-76"/>
<text text-anchor="middle" x="1651" y="-54.3" font-family="Times,serif" font-size="14.00" fill="#000000">conv1</text>
</a>
</g>
</g>
<!-- layer2/block0/relu1&#45;&gt;layer2/block0/branch/conv1 -->
<g id="edge20" class="edge">
<title>layer2/block0/relu1&#45;&gt;layer2/block0/branch/conv1</title>
<path fill="none" stroke="#000000" d="M1588.003,-78.299C1596.204,-75.6565 1605.3599,-72.7063 1614.095,-69.8916"/>
<polygon fill="#000000" stroke="#000000" points="1615.2604,-73.1934 1623.705,-66.795 1613.1135,-66.5307 1615.2604,-73.1934"/>
</g>
<!-- layer2/block0/conv3 -->
<g id="node22" class="node">
<title>layer2/block0/conv3</title>
<g id="a_node22"><a xlink:title="Conv2d(64, 128, kernel_size=(1, 1), stride=(2, 2), bias=False)">
<path fill="#bebada" stroke="#000000" d="M1936,-151C1936,-151 1906,-151 1906,-151 1900,-151 1894,-145 1894,-139 1894,-139 1894,-127 1894,-127 1894,-121 1900,-115 1906,-115 1906,-115 1936,-115 1936,-115 1942,-115 1948,-121 1948,-127 1948,-127 1948,-139 1948,-139 1948,-145 1942,-151 1936,-151"/>
<text text-anchor="middle" x="1921" y="-129.3" font-family="Times,serif" font-size="14.00" fill="#000000">conv3</text>
</a>
</g>
</g>
<!-- layer2/block0/relu1&#45;&gt;layer2/block0/conv3 -->
<g id="edge24" class="edge">
<title>layer2/block0/relu1&#45;&gt;layer2/block0/conv3</title>
<path fill="none" stroke="#000000" d="M1588.0569,-100.9783C1596.7621,-104.8791 1606.5929,-108.6806 1616,-111 1710.1388,-134.2102 1825.1893,-135.5006 1883.402,-134.3339"/>
<polygon fill="#000000" stroke="#000000" points="1883.6781,-137.8284 1893.5923,-134.0922 1883.5121,-130.8304 1883.6781,-137.8284"/>
</g>
<!-- layer2/block0/branch/bn2 -->
<g id="node19" class="node">
<title>layer2/block0/branch/bn2</title>
<g id="a_node19"><a xlink:title="BatchNorm(128, eps=1e&#45;05, momentum=0.1, affine=True, track_running_stats=True)">
<path fill="#ffffb3" stroke="#000000" d="M1756,-76C1756,-76 1726,-76 1726,-76 1720,-76 1714,-70 1714,-64 1714,-64 1714,-52 1714,-52 1714,-46 1720,-40 1726,-40 1726,-40 1756,-40 1756,-40 1762,-40 1768,-46 1768,-52 1768,-52 1768,-64 1768,-64 1768,-70 1762,-76 1756,-76"/>
<text text-anchor="middle" x="1741" y="-54.3" font-family="Times,serif" font-size="14.00" fill="#000000">bn2</text>
</a>
</g>
</g>
<!-- layer2/block0/branch/conv1&#45;&gt;layer2/block0/branch/bn2 -->
<g id="edge21" class="edge">
<title>layer2/block0/branch/conv1&#45;&gt;layer2/block0/branch/bn2</title>
<path fill="none" stroke="#000000" d="M1678.003,-58C1686.0277,-58 1694.9665,-58 1703.5309,-58"/>
<polygon fill="#000000" stroke="#000000" points="1703.7051,-61.5001 1713.705,-58 1703.705,-54.5001 1703.7051,-61.5001"/>
</g>
<!-- layer2/block0/branch/relu2 -->
<g id="node20" class="node">
<title>layer2/block0/branch/relu2</title>
<g id="a_node20"><a xlink:title="ReLU(inplace=True)">
<path fill="#fb8072" stroke="#000000" d="M1846,-76C1846,-76 1816,-76 1816,-76 1810,-76 1804,-70 1804,-64 1804,-64 1804,-52 1804,-52 1804,-46 1810,-40 1816,-40 1816,-40 1846,-40 1846,-40 1852,-40 1858,-46 1858,-52 1858,-52 1858,-64 1858,-64 1858,-70 1852,-76 1846,-76"/>
<text text-anchor="middle" x="1831" y="-54.3" font-family="Times,serif" font-size="14.00" fill="#000000">relu2</text>
</a>
</g>
</g>
<!-- layer2/block0/branch/bn2&#45;&gt;layer2/block0/branch/relu2 -->
<g id="edge22" class="edge">
<title>layer2/block0/branch/bn2&#45;&gt;layer2/block0/branch/relu2</title>
<path fill="none" stroke="#000000" d="M1768.003,-58C1776.0277,-58 1784.9665,-58 1793.5309,-58"/>
<polygon fill="#000000" stroke="#000000" points="1793.7051,-61.5001 1803.705,-58 1793.705,-54.5001 1793.7051,-61.5001"/>
</g>
<!-- layer2/block0/branch/conv2 -->
<g id="node21" class="node">
<title>layer2/block0/branch/conv2</title>
<g id="a_node21"><a xlink:title="Conv2d(128, 128, kernel_size=(3, 3), stride=(1, 1), padding=(1, 1), bias=False)">
<path fill="#bebada" stroke="#000000" d="M1936,-76C1936,-76 1906,-76 1906,-76 1900,-76 1894,-70 1894,-64 1894,-64 1894,-52 1894,-52 1894,-46 1900,-40 1906,-40 1906,-40 1936,-40 1936,-40 1942,-40 1948,-46 1948,-52 1948,-52 1948,-64 1948,-64 1948,-70 1942,-76 1936,-76"/>
<text text-anchor="middle" x="1921" y="-54.3" font-family="Times,serif" font-size="14.00" fill="#000000">conv2</text>
</a>
</g>
</g>
<!-- layer2/block0/branch/relu2&#45;&gt;layer2/block0/branch/conv2 -->
<g id="edge23" class="edge">
<title>layer2/block0/branch/relu2&#45;&gt;layer2/block0/branch/conv2</title>
<path fill="none" stroke="#000000" d="M1858.003,-58C1866.0277,-58 1874.9665,-58 1883.5309,-58"/>
<polygon fill="#000000" stroke="#000000" points="1883.7051,-61.5001 1893.705,-58 1883.705,-54.5001 1883.7051,-61.5001"/>
</g>
<!-- layer2/block0/add -->
<g id="node23" class="node">
<title>layer2/block0/add</title>
<g id="a_node23"><a xlink:title="Add()">
<path fill="#8dd3c7" stroke="#000000" d="M2026,-96C2026,-96 1996,-96 1996,-96 1990,-96 1984,-90 1984,-84 1984,-84 1984,-72 1984,-72 1984,-66 1990,-60 1996,-60 1996,-60 2026,-60 2026,-60 2032,-60 2038,-66 2038,-72 2038,-72 2038,-84 2038,-84 2038,-90 2032,-96 2026,-96"/>
<text text-anchor="middle" x="2011" y="-74.3" font-family="Times,serif" font-size="14.00" fill="#000000">add</text>
</a>
</g>
</g>
<!-- layer2/block0/branch/conv2&#45;&gt;layer2/block0/add -->
<g id="edge26" class="edge">
<title>layer2/block0/branch/conv2&#45;&gt;layer2/block0/add</title>
<path fill="none" stroke="#000000" d="M1948.003,-64.0007C1956.1158,-65.8035 1965.1631,-67.814 1973.8131,-69.7362"/>
<polygon fill="#000000" stroke="#000000" points="1973.1839,-73.1817 1983.705,-71.9345 1974.7024,-66.3484 1973.1839,-73.1817"/>
</g>
<!-- layer2/block0/conv3&#45;&gt;layer2/block0/add -->
<g id="edge25" class="edge">
<title>layer2/block0/conv3&#45;&gt;layer2/block0/add</title>
<path fill="none" stroke="#000000" d="M1948.003,-116.4982C1956.4686,-111.3248 1965.9516,-105.5296 1974.9389,-100.0373"/>
<polygon fill="#000000" stroke="#000000" points="1976.9973,-102.8813 1983.705,-94.6803 1973.3471,-96.9083 1976.9973,-102.8813"/>
</g>
<!-- layer2/block1/bn1 -->
<g id="node24" class="node">
<title>layer2/block1/bn1</title>
<g id="a_node24"><a xlink:title="BatchNorm(128, eps=1e&#45;05, momentum=0.1, affine=True, track_running_stats=True)">
<path fill="#ffffb3" stroke="#000000" d="M2116,-96C2116,-96 2086,-96 2086,-96 2080,-96 2074,-90 2074,-84 2074,-84 2074,-72 2074,-72 2074,-66 2080,-60 2086,-60 2086,-60 2116,-60 2116,-60 2122,-60 2128,-66 2128,-72 2128,-72 2128,-84 2128,-84 2128,-90 2122,-96 2116,-96"/>
<text text-anchor="middle" x="2101" y="-74.3" font-family="Times,serif" font-size="14.00" fill="#000000">bn1</text>
</a>
</g>
</g>
<!-- layer2/block0/add&#45;&gt;layer2/block1/bn1 -->
<g id="edge27" class="edge">
<title>layer2/block0/add&#45;&gt;layer2/block1/bn1</title>
<path fill="none" stroke="#000000" d="M2038.003,-78C2046.0277,-78 2054.9665,-78 2063.5309,-78"/>
<polygon fill="#000000" stroke="#000000" points="2063.7051,-81.5001 2073.705,-78 2063.705,-74.5001 2063.7051,-81.5001"/>
</g>
<!-- layer2/block1/relu1 -->
<g id="node25" class="node">
<title>layer2/block1/relu1</title>
<g id="a_node25"><a xlink:title="ReLU(inplace=True)">
<path fill="#fb8072" stroke="#000000" d="M2206,-96C2206,-96 2176,-96 2176,-96 2170,-96 2164,-90 2164,-84 2164,-84 2164,-72 2164,-72 2164,-66 2170,-60 2176,-60 2176,-60 2206,-60 2206,-60 2212,-60 2218,-66 2218,-72 2218,-72 2218,-84 2218,-84 2218,-90 2212,-96 2206,-96"/>
<text text-anchor="middle" x="2191" y="-74.3" font-family="Times,serif" font-size="14.00" fill="#000000">relu1</text>
</a>
</g>
</g>
<!-- layer2/block1/bn1&#45;&gt;layer2/block1/relu1 -->
<g id="edge28" class="edge">
<title>layer2/block1/bn1&#45;&gt;layer2/block1/relu1</title>
<path fill="none" stroke="#000000" d="M2128.003,-78C2136.0277,-78 2144.9665,-78 2153.5309,-78"/>
<polygon fill="#000000" stroke="#000000" points="2153.7051,-81.5001 2163.705,-78 2153.705,-74.5001 2153.7051,-81.5001"/>
</g>
<!-- layer2/block1/branch/conv1 -->
<g id="node26" class="node">
<title>layer2/block1/branch/conv1</title>
<g id="a_node26"><a xlink:title="Conv2d(128, 128, kernel_size=(3, 3), stride=(1, 1), padding=(1, 1), bias=False)">
<path fill="#bebada" stroke="#000000" d="M2296,-76C2296,-76 2266,-76 2266,-76 2260,-76 2254,-70 2254,-64 2254,-64 2254,-52 2254,-52 2254,-46 2260,-40 2266,-40 2266,-40 2296,-40 2296,-40 2302,-40 2308,-46 2308,-52 2308,-52 2308,-64 2308,-64 2308,-70 2302,-76 2296,-76"/>
<text text-anchor="middle" x="2281" y="-54.3" font-family="Times,serif" font-size="14.00" fill="#000000">conv1</text>
</a>
</g>
</g>
<!-- layer2/block1/relu1&#45;&gt;layer2/block1/branch/conv1 -->
<g id="edge29" class="edge">
<title>layer2/block1/relu1&#45;&gt;layer2/block1/branch/conv1</title>
<path fill="none" stroke="#000000" d="M2218.003,-71.9993C2226.1158,-70.1965 2235.1631,-68.186 2243.8131,-66.2638"/>
<polygon fill="#000000" stroke="#000000" points="2244.7024,-69.6516 2253.705,-64.0655 2243.1839,-62.8183 2244.7024,-69.6516"/>
</g>
<!-- layer2/block1/add -->
<g id="node30" class="node">
<title>layer2/block1/add</title>
<g id="a_node30"><a xlink:title="Add()">
<path fill="#8dd3c7" stroke="#000000" d="M2656,-96C2656,-96 2626,-96 2626,-96 2620,-96 2614,-90 2614,-84 2614,-84 2614,-72 2614,-72 2614,-66 2620,-60 2626,-60 2626,-60 2656,-60 2656,-60 2662,-60 2668,-66 2668,-72 2668,-72 2668,-84 2668,-84 2668,-90 2662,-96 2656,-96"/>
<text text-anchor="middle" x="2641" y="-74.3" font-family="Times,serif" font-size="14.00" fill="#000000">add</text>
</a>
</g>
</g>
<!-- layer2/block1/relu1&#45;&gt;layer2/block1/add -->
<g id="edge33" class="edge">
<title>layer2/block1/relu1&#45;&gt;layer2/block1/add</title>
<path fill="none" stroke="#000000" d="M2215.2203,-96.104C2224.3892,-101.9663 2235.2234,-107.7818 2246,-111 2299.2752,-126.9095 2315.4,-116 2371,-116 2371,-116 2371,-116 2461,-116 2516.6,-116 2532.7248,-126.9095 2586,-111 2593.4089,-108.7875 2600.845,-105.3474 2607.7486,-101.5084"/>
<polygon fill="#000000" stroke="#000000" points="2609.996,-104.2423 2616.7797,-96.104 2606.4015,-98.2356 2609.996,-104.2423"/>
</g>
<!-- layer2/block1/branch/bn2 -->
<g id="node27" class="node">
<title>layer2/block1/branch/bn2</title>
<g id="a_node27"><a xlink:title="BatchNorm(128, eps=1e&#45;05, momentum=0.1, affine=True, track_running_stats=True)">
<path fill="#ffffb3" stroke="#000000" d="M2386,-76C2386,-76 2356,-76 2356,-76 2350,-76 2344,-70 2344,-64 2344,-64 2344,-52 2344,-52 2344,-46 2350,-40 2356,-40 2356,-40 2386,-40 2386,-40 2392,-40 2398,-46 2398,-52 2398,-52 2398,-64 2398,-64 2398,-70 2392,-76 2386,-76"/>
<text text-anchor="middle" x="2371" y="-54.3" font-family="Times,serif" font-size="14.00" fill="#000000">bn2</text>
</a>
</g>
</g>
<!-- layer2/block1/branch/conv1&#45;&gt;layer2/block1/branch/bn2 -->
<g id="edge30" class="edge">
<title>layer2/block1/branch/conv1&#45;&gt;layer2/block1/branch/bn2</title>
<path fill="none" stroke="#000000" d="M2308.003,-58C2316.0277,-58 2324.9665,-58 2333.5309,-58"/>
<polygon fill="#000000" stroke="#000000" points="2333.7051,-61.5001 2343.705,-58 2333.705,-54.5001 2333.7051,-61.5001"/>
</g>
<!-- layer2/block1/branch/relu2 -->
<g id="node28" class="node">
<title>layer2/block1/branch/relu2</title>
<g id="a_node28"><a xlink:title="ReLU(inplace=True)">
<path fill="#fb8072" stroke="#000000" d="M2476,-76C2476,-76 2446,-76 2446,-76 2440,-76 2434,-70 2434,-64 2434,-64 2434,-52 2434,-52 2434,-46 2440,-40 2446,-40 2446,-40 2476,-40 2476,-40 2482,-40 2488,-46 2488,-52 2488,-52 2488,-64 2488,-64 2488,-70 2482,-76 2476,-76"/>
<text text-anchor="middle" x="2461" y="-54.3" font-family="Times,serif" font-size="14.00" fill="#000000">relu2</text>
</a>
</g>
</g>
<!-- layer2/block1/branch/bn2&#45;&gt;layer2/block1/branch/relu2 -->
<g id="edge31" class="edge">
<title>layer2/block1/branch/bn2&#45;&gt;layer2/block1/branch/relu2</title>
<path fill="none" stroke="#000000" d="M2398.003,-58C2406.0277,-58 2414.9665,-58 2423.5309,-58"/>
<polygon fill="#000000" stroke="#000000" points="2423.7051,-61.5001 2433.705,-58 2423.705,-54.5001 2423.7051,-61.5001"/>
</g>
<!-- layer2/block1/branch/conv2 -->
<g id="node29" class="node">
<title>layer2/block1/branch/conv2</title>
<g id="a_node29"><a xlink:title="Conv2d(128, 128, kernel_size=(3, 3), stride=(1, 1), padding=(1, 1), bias=False)">
<path fill="#bebada" stroke="#000000" d="M2566,-76C2566,-76 2536,-76 2536,-76 2530,-76 2524,-70 2524,-64 2524,-64 2524,-52 2524,-52 2524,-46 2530,-40 2536,-40 2536,-40 2566,-40 2566,-40 2572,-40 2578,-46 2578,-52 2578,-52 2578,-64 2578,-64 2578,-70 2572,-76 2566,-76"/>
<text text-anchor="middle" x="2551" y="-54.3" font-family="Times,serif" font-size="14.00" fill="#000000">conv2</text>
</a>
</g>
</g>
<!-- layer2/block1/branch/relu2&#45;&gt;layer2/block1/branch/conv2 -->
<g id="edge32" class="edge">
<title>layer2/block1/branch/relu2&#45;&gt;layer2/block1/branch/conv2</title>
<path fill="none" stroke="#000000" d="M2488.003,-58C2496.0277,-58 2504.9665,-58 2513.5309,-58"/>
<polygon fill="#000000" stroke="#000000" points="2513.7051,-61.5001 2523.705,-58 2513.705,-54.5001 2513.7051,-61.5001"/>
</g>
<!-- layer2/block1/branch/conv2&#45;&gt;layer2/block1/add -->
<g id="edge34" class="edge">
<title>layer2/block1/branch/conv2&#45;&gt;layer2/block1/add</title>
<path fill="none" stroke="#000000" d="M2578.003,-64.0007C2586.1158,-65.8035 2595.1631,-67.814 2603.8131,-69.7362"/>
<polygon fill="#000000" stroke="#000000" points="2603.1839,-73.1817 2613.705,-71.9345 2604.7024,-66.3484 2603.1839,-73.1817"/>
</g>
<!-- layer3/block0/bn1 -->
<g id="node31" class="node">
<title>layer3/block0/bn1</title>
<g id="a_node31"><a xlink:title="BatchNorm(128, eps=1e&#45;05, momentum=0.1, affine=True, track_running_stats=True)">
<path fill="#ffffb3" stroke="#000000" d="M2750,-96C2750,-96 2720,-96 2720,-96 2714,-96 2708,-90 2708,-84 2708,-84 2708,-72 2708,-72 2708,-66 2714,-60 2720,-60 2720,-60 2750,-60 2750,-60 2756,-60 2762,-66 2762,-72 2762,-72 2762,-84 2762,-84 2762,-90 2756,-96 2750,-96"/>
<text text-anchor="middle" x="2735" y="-74.3" font-family="Times,serif" font-size="14.00" fill="#000000">bn1</text>
</a>
</g>
</g>
<!-- layer2/block1/add&#45;&gt;layer3/block0/bn1 -->
<g id="edge35" class="edge">
<title>layer2/block1/add&#45;&gt;layer3/block0/bn1</title>
<path fill="none" stroke="#000000" d="M2668.1887,-78C2677.4446,-78 2687.9552,-78 2697.8551,-78"/>
<polygon fill="#000000" stroke="#000000" points="2697.8724,-81.5001 2707.8724,-78 2697.8724,-74.5001 2697.8724,-81.5001"/>
</g>
<!-- layer3/block0/relu1 -->
<g id="node32" class="node">
<title>layer3/block0/relu1</title>
<g id="a_node32"><a xlink:title="ReLU(inplace=True)">
<path fill="#fb8072" stroke="#000000" d="M2840,-96C2840,-96 2810,-96 2810,-96 2804,-96 2798,-90 2798,-84 2798,-84 2798,-72 2798,-72 2798,-66 2804,-60 2810,-60 2810,-60 2840,-60 2840,-60 2846,-60 2852,-66 2852,-72 2852,-72 2852,-84 2852,-84 2852,-90 2846,-96 2840,-96"/>
<text text-anchor="middle" x="2825" y="-74.3" font-family="Times,serif" font-size="14.00" fill="#000000">relu1</text>
</a>
</g>
</g>
<!-- layer3/block0/bn1&#45;&gt;layer3/block0/relu1 -->
<g id="edge36" class="edge">
<title>layer3/block0/bn1&#45;&gt;layer3/block0/relu1</title>
<path fill="none" stroke="#000000" d="M2762.003,-78C2770.0277,-78 2778.9665,-78 2787.5309,-78"/>
<polygon fill="#000000" stroke="#000000" points="2787.7051,-81.5001 2797.705,-78 2787.705,-74.5001 2787.7051,-81.5001"/>
</g>
<!-- layer3/block0/branch/conv1 -->
<g id="node33" class="node">
<title>layer3/block0/branch/conv1</title>
<g id="a_node33"><a xlink:title="Conv2d(128, 256, kernel_size=(3, 3), stride=(2, 2), padding=(1, 1), bias=False)">
<path fill="#bebada" stroke="#000000" d="M2930,-96C2930,-96 2900,-96 2900,-96 2894,-96 2888,-90 2888,-84 2888,-84 2888,-72 2888,-72 2888,-66 2894,-60 2900,-60 2900,-60 2930,-60 2930,-60 2936,-60 2942,-66 2942,-72 2942,-72 2942,-84 2942,-84 2942,-90 2936,-96 2930,-96"/>
<text text-anchor="middle" x="2915" y="-74.3" font-family="Times,serif" font-size="14.00" fill="#000000">conv1</text>
</a>
</g>
</g>
<!-- layer3/block0/relu1&#45;&gt;layer3/block0/branch/conv1 -->
<g id="edge37" class="edge">
<title>layer3/block0/relu1&#45;&gt;layer3/block0/branch/conv1</title>
<path fill="none" stroke="#000000" d="M2852.003,-78C2860.0277,-78 2868.9665,-78 2877.5309,-78"/>
<polygon fill="#000000" stroke="#000000" points="2877.7051,-81.5001 2887.705,-78 2877.705,-74.5001 2877.7051,-81.5001"/>
</g>
<!-- layer3/block0/conv3 -->
<g id="node37" class="node">
<title>layer3/block0/conv3</title>
<g id="a_node37"><a xlink:title="Conv2d(128, 256, kernel_size=(1, 1), stride=(2, 2), bias=False)">
<path fill="#bebada" stroke="#000000" d="M3200,-171C3200,-171 3170,-171 3170,-171 3164,-171 3158,-165 3158,-159 3158,-159 3158,-147 3158,-147 3158,-141 3164,-135 3170,-135 3170,-135 3200,-135 3200,-135 3206,-135 3212,-141 3212,-147 3212,-147 3212,-159 3212,-159 3212,-165 3206,-171 3200,-171"/>
<text text-anchor="middle" x="3185" y="-149.3" font-family="Times,serif" font-size="14.00" fill="#000000">conv3</text>
</a>
</g>
</g>
<!-- layer3/block0/relu1&#45;&gt;layer3/block0/conv3 -->
<g id="edge41" class="edge">
<title>layer3/block0/relu1&#45;&gt;layer3/block0/conv3</title>
<path fill="none" stroke="#000000" d="M2838.2001,-96.1273C2848.1851,-108.2974 2863.0445,-123.4395 2880,-131 2969.4229,-170.8742 3088.2975,-164.7143 3147.7782,-158.1531"/>
<polygon fill="#000000" stroke="#000000" points="3148.3051,-161.6154 3157.8305,-156.9768 3147.4915,-154.6628 3148.3051,-161.6154"/>
</g>
<!-- layer3/block0/branch/bn2 -->
<g id="node34" class="node">
<title>layer3/block0/branch/bn2</title>
<g id="a_node34"><a xlink:title="BatchNorm(256, eps=1e&#45;05, momentum=0.1, affine=True, track_running_stats=True)">
<path fill="#ffffb3" stroke="#000000" d="M3020,-96C3020,-96 2990,-96 2990,-96 2984,-96 2978,-90 2978,-84 2978,-84 2978,-72 2978,-72 2978,-66 2984,-60 2990,-60 2990,-60 3020,-60 3020,-60 3026,-60 3032,-66 3032,-72 3032,-72 3032,-84 3032,-84 3032,-90 3026,-96 3020,-96"/>
<text text-anchor="middle" x="3005" y="-74.3" font-family="Times,serif" font-size="14.00" fill="#000000">bn2</text>
</a>
</g>
</g>
<!-- layer3/block0/branch/conv1&#45;&gt;layer3/block0/branch/bn2 -->
<g id="edge38" class="edge">
<title>layer3/block0/branch/conv1&#45;&gt;layer3/block0/branch/bn2</title>
<path fill="none" stroke="#000000" d="M2942.003,-78C2950.0277,-78 2958.9665,-78 2967.5309,-78"/>
<polygon fill="#000000" stroke="#000000" points="2967.7051,-81.5001 2977.705,-78 2967.705,-74.5001 2967.7051,-81.5001"/>
</g>
<!-- layer3/block0/branch/relu2 -->
<g id="node35" class="node">
<title>layer3/block0/branch/relu2</title>
<g id="a_node35"><a xlink:title="ReLU(inplace=True)">
<path fill="#fb8072" stroke="#000000" d="M3110,-96C3110,-96 3080,-96 3080,-96 3074,-96 3068,-90 3068,-84 3068,-84 3068,-72 3068,-72 3068,-66 3074,-60 3080,-60 3080,-60 3110,-60 3110,-60 3116,-60 3122,-66 3122,-72 3122,-72 3122,-84 3122,-84 3122,-90 3116,-96 3110,-96"/>
<text text-anchor="middle" x="3095" y="-74.3" font-family="Times,serif" font-size="14.00" fill="#000000">relu2</text>
</a>
</g>
</g>
<!-- layer3/block0/branch/bn2&#45;&gt;layer3/block0/branch/relu2 -->
<g id="edge39" class="edge">
<title>layer3/block0/branch/bn2&#45;&gt;layer3/block0/branch/relu2</title>
<path fill="none" stroke="#000000" d="M3032.003,-78C3040.0277,-78 3048.9665,-78 3057.5309,-78"/>
<polygon fill="#000000" stroke="#000000" points="3057.7051,-81.5001 3067.705,-78 3057.705,-74.5001 3057.7051,-81.5001"/>
</g>
<!-- layer3/block0/branch/conv2 -->
<g id="node36" class="node">
<title>layer3/block0/branch/conv2</title>
<g id="a_node36"><a xlink:title="Conv2d(256, 256, kernel_size=(3, 3), stride=(1, 1), padding=(1, 1), bias=False)">
<path fill="#bebada" stroke="#000000" d="M3200,-96C3200,-96 3170,-96 3170,-96 3164,-96 3158,-90 3158,-84 3158,-84 3158,-72 3158,-72 3158,-66 3164,-60 3170,-60 3170,-60 3200,-60 3200,-60 3206,-60 3212,-66 3212,-72 3212,-72 3212,-84 3212,-84 3212,-90 3206,-96 3200,-96"/>
<text text-anchor="middle" x="3185" y="-74.3" font-family="Times,serif" font-size="14.00" fill="#000000">conv2</text>
</a>
</g>
</g>
<!-- layer3/block0/branch/relu2&#45;&gt;layer3/block0/branch/conv2 -->
<g id="edge40" class="edge">
<title>layer3/block0/branch/relu2&#45;&gt;layer3/block0/branch/conv2</title>
<path fill="none" stroke="#000000" d="M3122.003,-78C3130.0277,-78 3138.9665,-78 3147.5309,-78"/>
<polygon fill="#000000" stroke="#000000" points="3147.7051,-81.5001 3157.705,-78 3147.705,-74.5001 3147.7051,-81.5001"/>
</g>
<!-- layer3/block0/add -->
<g id="node38" class="node">
<title>layer3/block0/add</title>
<g id="a_node38"><a xlink:title="Add()">
<path fill="#8dd3c7" stroke="#000000" d="M3290,-96C3290,-96 3260,-96 3260,-96 3254,-96 3248,-90 3248,-84 3248,-84 3248,-72 3248,-72 3248,-66 3254,-60 3260,-60 3260,-60 3290,-60 3290,-60 3296,-60 3302,-66 3302,-72 3302,-72 3302,-84 3302,-84 3302,-90 3296,-96 3290,-96"/>
<text text-anchor="middle" x="3275" y="-74.3" font-family="Times,serif" font-size="14.00" fill="#000000">add</text>
</a>
</g>
</g>
<!-- layer3/block0/branch/conv2&#45;&gt;layer3/block0/add -->
<g id="edge43" class="edge">
<title>layer3/block0/branch/conv2&#45;&gt;layer3/block0/add</title>
<path fill="none" stroke="#000000" d="M3212.003,-78C3220.0277,-78 3228.9665,-78 3237.5309,-78"/>
<polygon fill="#000000" stroke="#000000" points="3237.7051,-81.5001 3247.705,-78 3237.705,-74.5001 3237.7051,-81.5001"/>
</g>
<!-- layer3/block0/conv3&#45;&gt;layer3/block0/add -->
<g id="edge42" class="edge">
<title>layer3/block0/conv3&#45;&gt;layer3/block0/add</title>
<path fill="none" stroke="#000000" d="M3212.1371,-136.7304C3214.8471,-134.8733 3217.5131,-132.9462 3220,-131 3230.7122,-122.617 3241.6703,-112.4425 3250.9574,-103.2582"/>
<polygon fill="#000000" stroke="#000000" points="3253.4462,-105.7192 3258.0106,-96.158 3248.48,-100.7859 3253.4462,-105.7192"/>
</g>
<!-- layer3/block1/bn1 -->
<g id="node39" class="node">
<title>layer3/block1/bn1</title>
<g id="a_node39"><a xlink:title="BatchNorm(256, eps=1e&#45;05, momentum=0.1, affine=True, track_running_stats=True)">
<path fill="#ffffb3" stroke="#000000" d="M3380,-96C3380,-96 3350,-96 3350,-96 3344,-96 3338,-90 3338,-84 3338,-84 3338,-72 3338,-72 3338,-66 3344,-60 3350,-60 3350,-60 3380,-60 3380,-60 3386,-60 3392,-66 3392,-72 3392,-72 3392,-84 3392,-84 3392,-90 3386,-96 3380,-96"/>
<text text-anchor="middle" x="3365" y="-74.3" font-family="Times,serif" font-size="14.00" fill="#000000">bn1</text>
</a>
</g>
</g>
<!-- layer3/block0/add&#45;&gt;layer3/block1/bn1 -->
<g id="edge44" class="edge">
<title>layer3/block0/add&#45;&gt;layer3/block1/bn1</title>
<path fill="none" stroke="#000000" d="M3302.003,-78C3310.0277,-78 3318.9665,-78 3327.5309,-78"/>
<polygon fill="#000000" stroke="#000000" points="3327.7051,-81.5001 3337.705,-78 3327.705,-74.5001 3327.7051,-81.5001"/>
</g>
<!-- layer3/block1/relu1 -->
<g id="node40" class="node">
<title>layer3/block1/relu1</title>
<g id="a_node40"><a xlink:title="ReLU(inplace=True)">
<path fill="#fb8072" stroke="#000000" d="M3470,-96C3470,-96 3440,-96 3440,-96 3434,-96 3428,-90 3428,-84 3428,-84 3428,-72 3428,-72 3428,-66 3434,-60 3440,-60 3440,-60 3470,-60 3470,-60 3476,-60 3482,-66 3482,-72 3482,-72 3482,-84 3482,-84 3482,-90 3476,-96 3470,-96"/>
<text text-anchor="middle" x="3455" y="-74.3" font-family="Times,serif" font-size="14.00" fill="#000000">relu1</text>
</a>
</g>
</g>
<!-- layer3/block1/bn1&#45;&gt;layer3/block1/relu1 -->
<g id="edge45" class="edge">
<title>layer3/block1/bn1&#45;&gt;layer3/block1/relu1</title>
<path fill="none" stroke="#000000" d="M3392.003,-78C3400.0277,-78 3408.9665,-78 3417.5309,-78"/>
<polygon fill="#000000" stroke="#000000" points="3417.7051,-81.5001 3427.705,-78 3417.705,-74.5001 3417.7051,-81.5001"/>
</g>
<!-- layer3/block1/branch/conv1 -->
<g id="node41" class="node">
<title>layer3/block1/branch/conv1</title>
<g id="a_node41"><a xlink:title="Conv2d(256, 256, kernel_size=(3, 3), stride=(1, 1), padding=(1, 1), bias=False)">
<path fill="#bebada" stroke="#000000" d="M3560,-96C3560,-96 3530,-96 3530,-96 3524,-96 3518,-90 3518,-84 3518,-84 3518,-72 3518,-72 3518,-66 3524,-60 3530,-60 3530,-60 3560,-60 3560,-60 3566,-60 3572,-66 3572,-72 3572,-72 3572,-84 3572,-84 3572,-90 3566,-96 3560,-96"/>
<text text-anchor="middle" x="3545" y="-74.3" font-family="Times,serif" font-size="14.00" fill="#000000">conv1</text>
</a>
</g>
</g>
<!-- layer3/block1/relu1&#45;&gt;layer3/block1/branch/conv1 -->
<g id="edge46" class="edge">
<title>layer3/block1/relu1&#45;&gt;layer3/block1/branch/conv1</title>
<path fill="none" stroke="#000000" d="M3482.003,-78C3490.0277,-78 3498.9665,-78 3507.5309,-78"/>
<polygon fill="#000000" stroke="#000000" points="3507.7051,-81.5001 3517.705,-78 3507.705,-74.5001 3507.7051,-81.5001"/>
</g>
<!-- layer3/block1/add -->
<g id="node45" class="node">
<title>layer3/block1/add</title>
<g id="a_node45"><a xlink:title="Add()">
<path fill="#8dd3c7" stroke="#000000" d="M3920,-116C3920,-116 3890,-116 3890,-116 3884,-116 3878,-110 3878,-104 3878,-104 3878,-92 3878,-92 3878,-86 3884,-80 3890,-80 3890,-80 3920,-80 3920,-80 3926,-80 3932,-86 3932,-92 3932,-92 3932,-104 3932,-104 3932,-110 3926,-116 3920,-116"/>
<text text-anchor="middle" x="3905" y="-94.3" font-family="Times,serif" font-size="14.00" fill="#000000">add</text>
</a>
</g>
</g>
<!-- layer3/block1/relu1&#45;&gt;layer3/block1/add -->
<g id="edge50" class="edge">
<title>layer3/block1/relu1&#45;&gt;layer3/block1/add</title>
<path fill="none" stroke="#000000" d="M3467.9144,-96.0331C3477.8654,-108.3273 3492.8037,-123.6599 3510,-131 3561.1364,-152.8272 3579.4,-136 3635,-136 3635,-136 3635,-136 3725,-136 3780.6,-136 3796.7248,-146.9095 3850,-131 3857.4089,-128.7875 3864.845,-125.3474 3871.7486,-121.5084"/>
<polygon fill="#000000" stroke="#000000" points="3873.996,-124.2423 3880.7797,-116.104 3870.4015,-118.2356 3873.996,-124.2423"/>
</g>
<!-- layer3/block1/branch/bn2 -->
<g id="node42" class="node">
<title>layer3/block1/branch/bn2</title>
<g id="a_node42"><a xlink:title="BatchNorm(256, eps=1e&#45;05, momentum=0.1, affine=True, track_running_stats=True)">
<path fill="#ffffb3" stroke="#000000" d="M3650,-96C3650,-96 3620,-96 3620,-96 3614,-96 3608,-90 3608,-84 3608,-84 3608,-72 3608,-72 3608,-66 3614,-60 3620,-60 3620,-60 3650,-60 3650,-60 3656,-60 3662,-66 3662,-72 3662,-72 3662,-84 3662,-84 3662,-90 3656,-96 3650,-96"/>
<text text-anchor="middle" x="3635" y="-74.3" font-family="Times,serif" font-size="14.00" fill="#000000">bn2</text>
</a>
</g>
</g>
<!-- layer3/block1/branch/conv1&#45;&gt;layer3/block1/branch/bn2 -->
<g id="edge47" class="edge">
<title>layer3/block1/branch/conv1&#45;&gt;layer3/block1/branch/bn2</title>
<path fill="none" stroke="#000000" d="M3572.003,-78C3580.0277,-78 3588.9665,-78 3597.5309,-78"/>
<polygon fill="#000000" stroke="#000000" points="3597.7051,-81.5001 3607.705,-78 3597.705,-74.5001 3597.7051,-81.5001"/>
</g>
<!-- layer3/block1/branch/relu2 -->
<g id="node43" class="node">
<title>layer3/block1/branch/relu2</title>
<g id="a_node43"><a xlink:title="ReLU(inplace=True)">
<path fill="#fb8072" stroke="#000000" d="M3740,-96C3740,-96 3710,-96 3710,-96 3704,-96 3698,-90 3698,-84 3698,-84 3698,-72 3698,-72 3698,-66 3704,-60 3710,-60 3710,-60 3740,-60 3740,-60 3746,-60 3752,-66 3752,-72 3752,-72 3752,-84 3752,-84 3752,-90 3746,-96 3740,-96"/>
<text text-anchor="middle" x="3725" y="-74.3" font-family="Times,serif" font-size="14.00" fill="#000000">relu2</text>
</a>
</g>
</g>
<!-- layer3/block1/branch/bn2&#45;&gt;layer3/block1/branch/relu2 -->
<g id="edge48" class="edge">
<title>layer3/block1/branch/bn2&#45;&gt;layer3/block1/branch/relu2</title>
<path fill="none" stroke="#000000" d="M3662.003,-78C3670.0277,-78 3678.9665,-78 3687.5309,-78"/>
<polygon fill="#000000" stroke="#000000" points="3687.7051,-81.5001 3697.705,-78 3687.705,-74.5001 3687.7051,-81.5001"/>
</g>
<!-- layer3/block1/branch/conv2 -->
<g id="node44" class="node">
<title>layer3/block1/branch/conv2</title>
<g id="a_node44"><a xlink:title="Conv2d(256, 256, kernel_size=(3, 3), stride=(1, 1), padding=(1, 1), bias=False)">
<path fill="#bebada" stroke="#000000" d="M3830,-96C3830,-96 3800,-96 3800,-96 3794,-96 3788,-90 3788,-84 3788,-84 3788,-72 3788,-72 3788,-66 3794,-60 3800,-60 3800,-60 3830,-60 3830,-60 3836,-60 3842,-66 3842,-72 3842,-72 3842,-84 3842,-84 3842,-90 3836,-96 3830,-96"/>
<text text-anchor="middle" x="3815" y="-74.3" font-family="Times,serif" font-size="14.00" fill="#000000">conv2</text>
</a>
</g>
</g>
<!-- layer3/block1/branch/relu2&#45;&gt;layer3/block1/branch/conv2 -->
<g id="edge49" class="edge">
<title>layer3/block1/branch/relu2&#45;&gt;layer3/block1/branch/conv2</title>
<path fill="none" stroke="#000000" d="M3752.003,-78C3760.0277,-78 3768.9665,-78 3777.5309,-78"/>
<polygon fill="#000000" stroke="#000000" points="3777.7051,-81.5001 3787.705,-78 3777.705,-74.5001 3777.7051,-81.5001"/>
</g>
<!-- layer3/block1/branch/conv2&#45;&gt;layer3/block1/add -->
<g id="edge51" class="edge">
<title>layer3/block1/branch/conv2&#45;&gt;layer3/block1/add</title>
<path fill="none" stroke="#000000" d="M3842.003,-84.0007C3850.1158,-85.8035 3859.1631,-87.814 3867.8131,-89.7362"/>
<polygon fill="#000000" stroke="#000000" points="3867.1839,-93.1817 3877.705,-91.9345 3868.7024,-86.3484 3867.1839,-93.1817"/>
</g>
<!-- layer4/block0/bn1 -->
<g id="node46" class="node">
<title>layer4/block0/bn1</title>
<g id="a_node46"><a xlink:title="BatchNorm(256, eps=1e&#45;05, momentum=0.1, affine=True, track_running_stats=True)">
<path fill="#ffffb3" stroke="#000000" d="M4014,-116C4014,-116 3984,-116 3984,-116 3978,-116 3972,-110 3972,-104 3972,-104 3972,-92 3972,-92 3972,-86 3978,-80 3984,-80 3984,-80 4014,-80 4014,-80 4020,-80 4026,-86 4026,-92 4026,-92 4026,-104 4026,-104 4026,-110 4020,-116 4014,-116"/>
<text text-anchor="middle" x="3999" y="-94.3" font-family="Times,serif" font-size="14.00" fill="#000000">bn1</text>
</a>
</g>
</g>
<!-- layer3/block1/add&#45;&gt;layer4/block0/bn1 -->
<g id="edge52" class="edge">
<title>layer3/block1/add&#45;&gt;layer4/block0/bn1</title>
<path fill="none" stroke="#000000" d="M3932.1887,-98C3941.4446,-98 3951.9552,-98 3961.8551,-98"/>
<polygon fill="#000000" stroke="#000000" points="3961.8724,-101.5001 3971.8724,-98 3961.8724,-94.5001 3961.8724,-101.5001"/>
</g>
<!-- layer4/block0/relu1 -->
<g id="node47" class="node">
<title>layer4/block0/relu1</title>
<g id="a_node47"><a xlink:title="ReLU(inplace=True)">
<path fill="#fb8072" stroke="#000000" d="M4104,-116C4104,-116 4074,-116 4074,-116 4068,-116 4062,-110 4062,-104 4062,-104 4062,-92 4062,-92 4062,-86 4068,-80 4074,-80 4074,-80 4104,-80 4104,-80 4110,-80 4116,-86 4116,-92 4116,-92 4116,-104 4116,-104 4116,-110 4110,-116 4104,-116"/>
<text text-anchor="middle" x="4089" y="-94.3" font-family="Times,serif" font-size="14.00" fill="#000000">relu1</text>
</a>
</g>
</g>
<!-- layer4/block0/bn1&#45;&gt;layer4/block0/relu1 -->
<g id="edge53" class="edge">
<title>layer4/block0/bn1&#45;&gt;layer4/block0/relu1</title>
<path fill="none" stroke="#000000" d="M4026.003,-98C4034.0277,-98 4042.9665,-98 4051.5309,-98"/>
<polygon fill="#000000" stroke="#000000" points="4051.7051,-101.5001 4061.705,-98 4051.705,-94.5001 4051.7051,-101.5001"/>
</g>
<!-- layer4/block0/branch/conv1 -->
<g id="node48" class="node">
<title>layer4/block0/branch/conv1</title>
<g id="a_node48"><a xlink:title="Conv2d(256, 256, kernel_size=(3, 3), stride=(2, 2), padding=(1, 1), bias=False)">
<path fill="#bebada" stroke="#000000" d="M4194,-68C4194,-68 4164,-68 4164,-68 4158,-68 4152,-62 4152,-56 4152,-56 4152,-44 4152,-44 4152,-38 4158,-32 4164,-32 4164,-32 4194,-32 4194,-32 4200,-32 4206,-38 4206,-44 4206,-44 4206,-56 4206,-56 4206,-62 4200,-68 4194,-68"/>
<text text-anchor="middle" x="4179" y="-46.3" font-family="Times,serif" font-size="14.00" fill="#000000">conv1</text>
</a>
</g>
</g>
<!-- layer4/block0/relu1&#45;&gt;layer4/block0/branch/conv1 -->
<g id="edge54" class="edge">
<title>layer4/block0/relu1&#45;&gt;layer4/block0/branch/conv1</title>
<path fill="none" stroke="#000000" d="M4116.003,-83.5984C4124.3804,-79.1305 4133.7541,-74.1311 4142.6579,-69.3824"/>
<polygon fill="#000000" stroke="#000000" points="4144.5286,-72.3515 4151.705,-64.5573 4141.2344,-66.175 4144.5286,-72.3515"/>
</g>
<!-- layer4/block0/conv3 -->
<g id="node52" class="node">
<title>layer4/block0/conv3</title>
<g id="a_node52"><a xlink:title="Conv2d(256, 256, kernel_size=(1, 1), stride=(2, 2), bias=False)">
<path fill="#bebada" stroke="#000000" d="M4464,-143C4464,-143 4434,-143 4434,-143 4428,-143 4422,-137 4422,-131 4422,-131 4422,-119 4422,-119 4422,-113 4428,-107 4434,-107 4434,-107 4464,-107 4464,-107 4470,-107 4476,-113 4476,-119 4476,-119 4476,-131 4476,-131 4476,-137 4470,-143 4464,-143"/>
<text text-anchor="middle" x="4449" y="-121.3" font-family="Times,serif" font-size="14.00" fill="#000000">conv3</text>
</a>
</g>
</g>
<!-- layer4/block0/relu1&#45;&gt;layer4/block0/conv3 -->
<g id="edge58" class="edge">
<title>layer4/block0/relu1&#45;&gt;layer4/block0/conv3</title>
<path fill="none" stroke="#000000" d="M4116.1269,-100.5673C4125.0069,-101.3806 4134.9215,-102.26 4144,-103 4240.3883,-110.8569 4354.0339,-118.6716 4411.5727,-122.526"/>
<polygon fill="#000000" stroke="#000000" points="4411.4357,-126.0246 4421.6467,-123.1987 4411.9022,-119.0401 4411.4357,-126.0246"/>
</g>
<!-- layer4/block0/branch/bn2 -->
<g id="node49" class="node">
<title>layer4/block0/branch/bn2</title>
<g id="a_node49"><a xlink:title="BatchNorm(256, eps=1e&#45;05, momentum=0.1, affine=True, track_running_stats=True)">
<path fill="#ffffb3" stroke="#000000" d="M4284,-68C4284,-68 4254,-68 4254,-68 4248,-68 4242,-62 4242,-56 4242,-56 4242,-44 4242,-44 4242,-38 4248,-32 4254,-32 4254,-32 4284,-32 4284,-32 4290,-32 4296,-38 4296,-44 4296,-44 4296,-56 4296,-56 4296,-62 4290,-68 4284,-68"/>
<text text-anchor="middle" x="4269" y="-46.3" font-family="Times,serif" font-size="14.00" fill="#000000">bn2</text>
</a>
</g>
</g>
<!-- layer4/block0/branch/conv1&#45;&gt;layer4/block0/branch/bn2 -->
<g id="edge55" class="edge">
<title>layer4/block0/branch/conv1&#45;&gt;layer4/block0/branch/bn2</title>
<path fill="none" stroke="#000000" d="M4206.003,-50C4214.0277,-50 4222.9665,-50 4231.5309,-50"/>
<polygon fill="#000000" stroke="#000000" points="4231.7051,-53.5001 4241.705,-50 4231.705,-46.5001 4231.7051,-53.5001"/>
</g>
<!-- layer4/block0/branch/relu2 -->
<g id="node50" class="node">
<title>layer4/block0/branch/relu2</title>
<g id="a_node50"><a xlink:title="ReLU(inplace=True)">
<path fill="#fb8072" stroke="#000000" d="M4374,-68C4374,-68 4344,-68 4344,-68 4338,-68 4332,-62 4332,-56 4332,-56 4332,-44 4332,-44 4332,-38 4338,-32 4344,-32 4344,-32 4374,-32 4374,-32 4380,-32 4386,-38 4386,-44 4386,-44 4386,-56 4386,-56 4386,-62 4380,-68 4374,-68"/>
<text text-anchor="middle" x="4359" y="-46.3" font-family="Times,serif" font-size="14.00" fill="#000000">relu2</text>
</a>
</g>
</g>
<!-- layer4/block0/branch/bn2&#45;&gt;layer4/block0/branch/relu2 -->
<g id="edge56" class="edge">
<title>layer4/block0/branch/bn2&#45;&gt;layer4/block0/branch/relu2</title>
<path fill="none" stroke="#000000" d="M4296.003,-50C4304.0277,-50 4312.9665,-50 4321.5309,-50"/>
<polygon fill="#000000" stroke="#000000" points="4321.7051,-53.5001 4331.705,-50 4321.705,-46.5001 4321.7051,-53.5001"/>
</g>
<!-- layer4/block0/branch/conv2 -->
<g id="node51" class="node">
<title>layer4/block0/branch/conv2</title>
<g id="a_node51"><a xlink:title="Conv2d(256, 256, kernel_size=(3, 3), stride=(1, 1), padding=(1, 1), bias=False)">
<path fill="#bebada" stroke="#000000" d="M4464,-68C4464,-68 4434,-68 4434,-68 4428,-68 4422,-62 4422,-56 4422,-56 4422,-44 4422,-44 4422,-38 4428,-32 4434,-32 4434,-32 4464,-32 4464,-32 4470,-32 4476,-38 4476,-44 4476,-44 4476,-56 4476,-56 4476,-62 4470,-68 4464,-68"/>
<text text-anchor="middle" x="4449" y="-46.3" font-family="Times,serif" font-size="14.00" fill="#000000">conv2</text>
</a>
</g>
</g>
<!-- layer4/block0/branch/relu2&#45;&gt;layer4/block0/branch/conv2 -->
<g id="edge57" class="edge">
<title>layer4/block0/branch/relu2&#45;&gt;layer4/block0/branch/conv2</title>
<path fill="none" stroke="#000000" d="M4386.003,-50C4394.0277,-50 4402.9665,-50 4411.5309,-50"/>
<polygon fill="#000000" stroke="#000000" points="4411.7051,-53.5001 4421.705,-50 4411.705,-46.5001 4411.7051,-53.5001"/>
</g>
<!-- layer4/block0/add -->
<g id="node53" class="node">
<title>layer4/block0/add</title>
<g id="a_node53"><a xlink:title="Add()">
<path fill="#8dd3c7" stroke="#000000" d="M4554,-68C4554,-68 4524,-68 4524,-68 4518,-68 4512,-62 4512,-56 4512,-56 4512,-44 4512,-44 4512,-38 4518,-32 4524,-32 4524,-32 4554,-32 4554,-32 4560,-32 4566,-38 4566,-44 4566,-44 4566,-56 4566,-56 4566,-62 4560,-68 4554,-68"/>
<text text-anchor="middle" x="4539" y="-46.3" font-family="Times,serif" font-size="14.00" fill="#000000">add</text>
</a>
</g>
</g>
<!-- layer4/block0/branch/conv2&#45;&gt;layer4/block0/add -->
<g id="edge60" class="edge">
<title>layer4/block0/branch/conv2&#45;&gt;layer4/block0/add</title>
<path fill="none" stroke="#000000" d="M4476.003,-50C4484.0277,-50 4492.9665,-50 4501.5309,-50"/>
<polygon fill="#000000" stroke="#000000" points="4501.7051,-53.5001 4511.705,-50 4501.705,-46.5001 4501.7051,-53.5001"/>
</g>
<!-- layer4/block0/conv3&#45;&gt;layer4/block0/add -->
<g id="edge59" class="edge">
<title>layer4/block0/conv3&#45;&gt;layer4/block0/add</title>
<path fill="none" stroke="#000000" d="M4476.1371,-108.7304C4478.8471,-106.8733 4481.5131,-104.9462 4484,-103 4494.7122,-94.617 4505.6703,-84.4425 4514.9574,-75.2582"/>
<polygon fill="#000000" stroke="#000000" points="4517.4462,-77.7192 4522.0106,-68.158 4512.48,-72.7859 4517.4462,-77.7192"/>
</g>
<!-- layer4/block1/bn1 -->
<g id="node54" class="node">
<title>layer4/block1/bn1</title>
<g id="a_node54"><a xlink:title="BatchNorm(256, eps=1e&#45;05, momentum=0.1, affine=True, track_running_stats=True)">
<path fill="#ffffb3" stroke="#000000" d="M4644,-68C4644,-68 4614,-68 4614,-68 4608,-68 4602,-62 4602,-56 4602,-56 4602,-44 4602,-44 4602,-38 4608,-32 4614,-32 4614,-32 4644,-32 4644,-32 4650,-32 4656,-38 4656,-44 4656,-44 4656,-56 4656,-56 4656,-62 4650,-68 4644,-68"/>
<text text-anchor="middle" x="4629" y="-46.3" font-family="Times,serif" font-size="14.00" fill="#000000">bn1</text>
</a>
</g>
</g>
<!-- layer4/block0/add&#45;&gt;layer4/block1/bn1 -->
<g id="edge61" class="edge">
<title>layer4/block0/add&#45;&gt;layer4/block1/bn1</title>
<path fill="none" stroke="#000000" d="M4566.003,-50C4574.0277,-50 4582.9665,-50 4591.5309,-50"/>
<polygon fill="#000000" stroke="#000000" points="4591.7051,-53.5001 4601.705,-50 4591.705,-46.5001 4591.7051,-53.5001"/>
</g>
<!-- layer4/block1/relu1 -->
<g id="node55" class="node">
<title>layer4/block1/relu1</title>
<g id="a_node55"><a xlink:title="ReLU(inplace=True)">
<path fill="#fb8072" stroke="#000000" d="M4734,-68C4734,-68 4704,-68 4704,-68 4698,-68 4692,-62 4692,-56 4692,-56 4692,-44 4692,-44 4692,-38 4698,-32 4704,-32 4704,-32 4734,-32 4734,-32 4740,-32 4746,-38 4746,-44 4746,-44 4746,-56 4746,-56 4746,-62 4740,-68 4734,-68"/>
<text text-anchor="middle" x="4719" y="-46.3" font-family="Times,serif" font-size="14.00" fill="#000000">relu1</text>
</a>
</g>
</g>
<!-- layer4/block1/bn1&#45;&gt;layer4/block1/relu1 -->
<g id="edge62" class="edge">
<title>layer4/block1/bn1&#45;&gt;layer4/block1/relu1</title>
<path fill="none" stroke="#000000" d="M4656.003,-50C4664.0277,-50 4672.9665,-50 4681.5309,-50"/>
<polygon fill="#000000" stroke="#000000" points="4681.7051,-53.5001 4691.705,-50 4681.705,-46.5001 4681.7051,-53.5001"/>
</g>
<!-- layer4/block1/branch/conv1 -->
<g id="node56" class="node">
<title>layer4/block1/branch/conv1</title>
<g id="a_node56"><a xlink:title="Conv2d(256, 256, kernel_size=(3, 3), stride=(1, 1), padding=(1, 1), bias=False)">
<path fill="#bebada" stroke="#000000" d="M4824,-68C4824,-68 4794,-68 4794,-68 4788,-68 4782,-62 4782,-56 4782,-56 4782,-44 4782,-44 4782,-38 4788,-32 4794,-32 4794,-32 4824,-32 4824,-32 4830,-32 4836,-38 4836,-44 4836,-44 4836,-56 4836,-56 4836,-62 4830,-68 4824,-68"/>
<text text-anchor="middle" x="4809" y="-46.3" font-family="Times,serif" font-size="14.00" fill="#000000">conv1</text>
</a>
</g>
</g>
<!-- layer4/block1/relu1&#45;&gt;layer4/block1/branch/conv1 -->
<g id="edge63" class="edge">
<title>layer4/block1/relu1&#45;&gt;layer4/block1/branch/conv1</title>
<path fill="none" stroke="#000000" d="M4746.003,-50C4754.0277,-50 4762.9665,-50 4771.5309,-50"/>
<polygon fill="#000000" stroke="#000000" points="4771.7051,-53.5001 4781.705,-50 4771.705,-46.5001 4771.7051,-53.5001"/>
</g>
<!-- layer4/block1/add -->
<g id="node60" class="node">
<title>layer4/block1/add</title>
<g id="a_node60"><a xlink:title="Add()">
<path fill="#8dd3c7" stroke="#000000" d="M5184,-88C5184,-88 5154,-88 5154,-88 5148,-88 5142,-82 5142,-76 5142,-76 5142,-64 5142,-64 5142,-58 5148,-52 5154,-52 5154,-52 5184,-52 5184,-52 5190,-52 5196,-58 5196,-64 5196,-64 5196,-76 5196,-76 5196,-82 5190,-88 5184,-88"/>
<text text-anchor="middle" x="5169" y="-66.3" font-family="Times,serif" font-size="14.00" fill="#000000">add</text>
</a>
</g>
</g>
<!-- layer4/block1/relu1&#45;&gt;layer4/block1/add -->
<g id="edge67" class="edge">
<title>layer4/block1/relu1&#45;&gt;layer4/block1/add</title>
<path fill="none" stroke="#000000" d="M4731.9144,-68.0331C4741.8654,-80.3273 4756.8037,-95.6599 4774,-103 4825.1364,-124.8272 4843.4,-108 4899,-108 4899,-108 4899,-108 4989,-108 5044.6,-108 5060.7248,-118.9095 5114,-103 5121.4089,-100.7875 5128.845,-97.3474 5135.7486,-93.5084"/>
<polygon fill="#000000" stroke="#000000" points="5137.996,-96.2423 5144.7797,-88.104 5134.4015,-90.2356 5137.996,-96.2423"/>
</g>
<!-- layer4/block1/branch/bn2 -->
<g id="node57" class="node">
<title>layer4/block1/branch/bn2</title>
<g id="a_node57"><a xlink:title="BatchNorm(256, eps=1e&#45;05, momentum=0.1, affine=True, track_running_stats=True)">
<path fill="#ffffb3" stroke="#000000" d="M4914,-68C4914,-68 4884,-68 4884,-68 4878,-68 4872,-62 4872,-56 4872,-56 4872,-44 4872,-44 4872,-38 4878,-32 4884,-32 4884,-32 4914,-32 4914,-32 4920,-32 4926,-38 4926,-44 4926,-44 4926,-56 4926,-56 4926,-62 4920,-68 4914,-68"/>
<text text-anchor="middle" x="4899" y="-46.3" font-family="Times,serif" font-size="14.00" fill="#000000">bn2</text>
</a>
</g>
</g>
<!-- layer4/block1/branch/conv1&#45;&gt;layer4/block1/branch/bn2 -->
<g id="edge64" class="edge">
<title>layer4/block1/branch/conv1&#45;&gt;layer4/block1/branch/bn2</title>
<path fill="none" stroke="#000000" d="M4836.003,-50C4844.0277,-50 4852.9665,-50 4861.5309,-50"/>
<polygon fill="#000000" stroke="#000000" points="4861.7051,-53.5001 4871.705,-50 4861.705,-46.5001 4861.7051,-53.5001"/>
</g>
<!-- layer4/block1/branch/relu2 -->
<g id="node58" class="node">
<title>layer4/block1/branch/relu2</title>
<g id="a_node58"><a xlink:title="ReLU(inplace=True)">
<path fill="#fb8072" stroke="#000000" d="M5004,-68C5004,-68 4974,-68 4974,-68 4968,-68 4962,-62 4962,-56 4962,-56 4962,-44 4962,-44 4962,-38 4968,-32 4974,-32 4974,-32 5004,-32 5004,-32 5010,-32 5016,-38 5016,-44 5016,-44 5016,-56 5016,-56 5016,-62 5010,-68 5004,-68"/>
<text text-anchor="middle" x="4989" y="-46.3" font-family="Times,serif" font-size="14.00" fill="#000000">relu2</text>
</a>
</g>
</g>
<!-- layer4/block1/branch/bn2&#45;&gt;layer4/block1/branch/relu2 -->
<g id="edge65" class="edge">
<title>layer4/block1/branch/bn2&#45;&gt;layer4/block1/branch/relu2</title>
<path fill="none" stroke="#000000" d="M4926.003,-50C4934.0277,-50 4942.9665,-50 4951.5309,-50"/>
<polygon fill="#000000" stroke="#000000" points="4951.7051,-53.5001 4961.705,-50 4951.705,-46.5001 4951.7051,-53.5001"/>
</g>
<!-- layer4/block1/branch/conv2 -->
<g id="node59" class="node">
<title>layer4/block1/branch/conv2</title>
<g id="a_node59"><a xlink:title="Conv2d(256, 256, kernel_size=(3, 3), stride=(1, 1), padding=(1, 1), bias=False)">
<path fill="#bebada" stroke="#000000" d="M5094,-68C5094,-68 5064,-68 5064,-68 5058,-68 5052,-62 5052,-56 5052,-56 5052,-44 5052,-44 5052,-38 5058,-32 5064,-32 5064,-32 5094,-32 5094,-32 5100,-32 5106,-38 5106,-44 5106,-44 5106,-56 5106,-56 5106,-62 5100,-68 5094,-68"/>
<text text-anchor="middle" x="5079" y="-46.3" font-family="Times,serif" font-size="14.00" fill="#000000">conv2</text>
</a>
</g>
</g>
<!-- layer4/block1/branch/relu2&#45;&gt;layer4/block1/branch/conv2 -->
<g id="edge66" class="edge">
<title>layer4/block1/branch/relu2&#45;&gt;layer4/block1/branch/conv2</title>
<path fill="none" stroke="#000000" d="M5016.003,-50C5024.0277,-50 5032.9665,-50 5041.5309,-50"/>
<polygon fill="#000000" stroke="#000000" points="5041.7051,-53.5001 5051.705,-50 5041.705,-46.5001 5041.7051,-53.5001"/>
</g>
<!-- layer4/block1/branch/conv2&#45;&gt;layer4/block1/add -->
<g id="edge68" class="edge">
<title>layer4/block1/branch/conv2&#45;&gt;layer4/block1/add</title>
<path fill="none" stroke="#000000" d="M5106.003,-56.0007C5114.1158,-57.8035 5123.1631,-59.814 5131.8131,-61.7362"/>
<polygon fill="#000000" stroke="#000000" points="5131.1839,-65.1817 5141.705,-63.9345 5132.7024,-58.3484 5131.1839,-65.1817"/>
</g>
<!-- final/in -->
<g id="node61" class="node">
<title>final/in</title>
<g id="a_node61"><a xlink:title="Identity()">
<path fill="#80b1d3" stroke="#000000" d="M5274,-88C5274,-88 5244,-88 5244,-88 5238,-88 5232,-82 5232,-76 5232,-76 5232,-64 5232,-64 5232,-58 5238,-52 5244,-52 5244,-52 5274,-52 5274,-52 5280,-52 5286,-58 5286,-64 5286,-64 5286,-76 5286,-76 5286,-82 5280,-88 5274,-88"/>
<text text-anchor="middle" x="5259" y="-66.3" font-family="Times,serif" font-size="14.00" fill="#000000">in</text>
</a>
</g>
</g>
<!-- layer4/block1/add&#45;&gt;final/in -->
<g id="edge69" class="edge">
<title>layer4/block1/add&#45;&gt;final/in</title>
<path fill="none" stroke="#000000" d="M5196.003,-70C5204.0277,-70 5212.9665,-70 5221.5309,-70"/>
<polygon fill="#000000" stroke="#000000" points="5221.7051,-73.5001 5231.705,-70 5221.705,-66.5001 5221.7051,-73.5001"/>
</g>
<!-- final/maxpool -->
<g id="node62" class="node">
<title>final/maxpool</title>
<g id="a_node62"><a xlink:title="MaxPool2d(kernel_size=4, stride=4, padding=0, dilation=1, ceil_mode=False)">
<path fill="#fdb462" stroke="#000000" d="M5375,-80C5375,-80 5334,-80 5334,-80 5328,-80 5322,-74 5322,-68 5322,-68 5322,-56 5322,-56 5322,-50 5328,-44 5334,-44 5334,-44 5375,-44 5375,-44 5381,-44 5387,-50 5387,-56 5387,-56 5387,-68 5387,-68 5387,-74 5381,-80 5375,-80"/>
<text text-anchor="middle" x="5354.5" y="-58.3" font-family="Times,serif" font-size="14.00" fill="#000000">maxpool</text>
</a>
</g>
</g>
<!-- final/in&#45;&gt;final/maxpool -->
<g id="edge70" class="edge">
<title>final/in&#45;&gt;final/maxpool</title>
<path fill="none" stroke="#000000" d="M5286.111,-67.7289C5294.1173,-67.0582 5303.0822,-66.3073 5311.8182,-65.5754"/>
<polygon fill="#000000" stroke="#000000" points="5312.2244,-69.0538 5321.8973,-64.7311 5311.64,-62.0782 5312.2244,-69.0538"/>
</g>
<!-- final/avgpool -->
<g id="node63" class="node">
<title>final/avgpool</title>
<g id="a_node63"><a xlink:title="AvgPool2d(kernel_size=4, stride=4, padding=0)">
<path fill="#b3de69" stroke="#000000" d="M5372.5,-134C5372.5,-134 5336.5,-134 5336.5,-134 5330.5,-134 5324.5,-128 5324.5,-122 5324.5,-122 5324.5,-110 5324.5,-110 5324.5,-104 5330.5,-98 5336.5,-98 5336.5,-98 5372.5,-98 5372.5,-98 5378.5,-98 5384.5,-104 5384.5,-110 5384.5,-110 5384.5,-122 5384.5,-122 5384.5,-128 5378.5,-134 5372.5,-134"/>
<text text-anchor="middle" x="5354.5" y="-112.3" font-family="Times,serif" font-size="14.00" fill="#000000">avgpool</text>
</a>
</g>
</g>
<!-- final/in&#45;&gt;final/avgpool -->
<g id="edge71" class="edge">
<title>final/in&#45;&gt;final/avgpool</title>
<path fill="none" stroke="#000000" d="M5286.111,-83.0587C5295.1375,-87.4065 5305.3824,-92.3413 5315.1441,-97.0432"/>
<polygon fill="#000000" stroke="#000000" points="5313.7714,-100.2668 5324.2996,-101.4532 5316.8091,-93.9603 5313.7714,-100.2668"/>
</g>
<!-- final/concat -->
<g id="node64" class="node">
<title>final/concat</title>
<g id="a_node64"><a xlink:title="Concat()">
<path fill="#fccde5" stroke="#000000" d="M5465,-107C5465,-107 5435,-107 5435,-107 5429,-107 5423,-101 5423,-95 5423,-95 5423,-83 5423,-83 5423,-77 5429,-71 5435,-71 5435,-71 5465,-71 5465,-71 5471,-71 5477,-77 5477,-83 5477,-83 5477,-95 5477,-95 5477,-101 5471,-107 5465,-107"/>
<text text-anchor="middle" x="5450" y="-85.3" font-family="Times,serif" font-size="14.00" fill="#000000">concat</text>
</a>
</g>
</g>
<!-- final/maxpool&#45;&gt;final/concat -->
<g id="edge72" class="edge">
<title>final/maxpool&#45;&gt;final/concat</title>
<path fill="none" stroke="#000000" d="M5387.0986,-71.2164C5395.4874,-73.5881 5404.5723,-76.1566 5413.1598,-78.5844"/>
<polygon fill="#000000" stroke="#000000" points="5412.3658,-81.9971 5422.9408,-81.3498 5414.2702,-75.2611 5412.3658,-81.9971"/>
</g>
<!-- final/avgpool&#45;&gt;final/concat -->
<g id="edge73" class="edge">
<title>final/avgpool&#45;&gt;final/concat</title>
<path fill="none" stroke="#000000" d="M5384.7168,-107.457C5393.706,-104.9156 5403.6579,-102.102 5413.026,-99.4534"/>
<polygon fill="#000000" stroke="#000000" points="5414.2184,-102.7535 5422.889,-96.6649 5412.3139,-96.0176 5414.2184,-102.7535"/>
</g>
<!-- final/flatten -->
<g id="node65" class="node">
<title>final/flatten</title>
<g id="a_node65"><a xlink:title="Flatten()">
<path fill="#bc80bd" stroke="#000000" d="M5555,-107C5555,-107 5525,-107 5525,-107 5519,-107 5513,-101 5513,-95 5513,-95 5513,-83 5513,-83 5513,-77 5519,-71 5525,-71 5525,-71 5555,-71 5555,-71 5561,-71 5567,-77 5567,-83 5567,-83 5567,-95 5567,-95 5567,-101 5561,-107 5555,-107"/>
<text text-anchor="middle" x="5540" y="-85.3" font-family="Times,serif" font-size="14.00" fill="#000000">flatten</text>
</a>
</g>
</g>
<!-- final/concat&#45;&gt;final/flatten -->
<g id="edge74" class="edge">
<title>final/concat&#45;&gt;final/flatten</title>
<path fill="none" stroke="#000000" d="M5477.003,-89C5485.0277,-89 5493.9665,-89 5502.5309,-89"/>
<polygon fill="#000000" stroke="#000000" points="5502.7051,-92.5001 5512.705,-89 5502.705,-85.5001 5502.7051,-92.5001"/>
</g>
<!-- final/linear -->
<g id="node66" class="node">
<title>final/linear</title>
<g id="a_node66"><a xlink:title="Linear(in_features=512, out_features=10, bias=True)">
<path fill="#ccebc5" stroke="#000000" d="M5645,-107C5645,-107 5615,-107 5615,-107 5609,-107 5603,-101 5603,-95 5603,-95 5603,-83 5603,-83 5603,-77 5609,-71 5615,-71 5615,-71 5645,-71 5645,-71 5651,-71 5657,-77 5657,-83 5657,-83 5657,-95 5657,-95 5657,-101 5651,-107 5645,-107"/>
<text text-anchor="middle" x="5630" y="-85.3" font-family="Times,serif" font-size="14.00" fill="#000000">linear</text>
</a>
</g>
</g>
<!-- final/flatten&#45;&gt;final/linear -->
<g id="edge75" class="edge">
<title>final/flatten&#45;&gt;final/linear</title>
<path fill="none" stroke="#000000" d="M5567.003,-89C5575.0277,-89 5583.9665,-89 5592.5309,-89"/>
<polygon fill="#000000" stroke="#000000" points="5592.7051,-92.5001 5602.705,-89 5592.705,-85.5001 5592.7051,-92.5001"/>
</g>
<!-- logits -->
<g id="node67" class="node">
<title>logits</title>
<g id="a_node67"><a xlink:title="Identity()">
<path fill="#80b1d3" stroke="#000000" d="M5735,-107C5735,-107 5705,-107 5705,-107 5699,-107 5693,-101 5693,-95 5693,-95 5693,-83 5693,-83 5693,-77 5699,-71 5705,-71 5705,-71 5735,-71 5735,-71 5741,-71 5747,-77 5747,-83 5747,-83 5747,-95 5747,-95 5747,-101 5741,-107 5735,-107"/>
<text text-anchor="middle" x="5720" y="-85.3" font-family="Times,serif" font-size="14.00" fill="#000000">logits</text>
</a>
</g>
</g>
<!-- final/linear&#45;&gt;logits -->
<g id="edge76" class="edge">
<title>final/linear&#45;&gt;logits</title>
<path fill="none" stroke="#000000" d="M5657.003,-89C5665.0277,-89 5673.9665,-89 5682.5309,-89"/>
<polygon fill="#000000" stroke="#000000" points="5682.7051,-92.5001 5692.705,-89 5682.705,-85.5001 5682.7051,-92.5001"/>
</g>
<!-- input -->
<g id="node68" class="node">
<title>input</title>
<path fill="#ffffff" stroke="#000000" d="M42,-105C42,-105 12,-105 12,-105 6,-105 0,-99 0,-93 0,-93 0,-81 0,-81 0,-75 6,-69 12,-69 12,-69 42,-69 42,-69 48,-69 54,-75 54,-81 54,-81 54,-93 54,-93 54,-99 48,-105 42,-105"/>
<text text-anchor="middle" x="27" y="-83.3" font-family="Times,serif" font-size="14.00" fill="#000000">input</text>
</g>
<!-- input&#45;&gt;prep/conv -->
<g id="edge1" class="edge">
<title>input&#45;&gt;prep/conv</title>
<path fill="none" stroke="#000000" d="M54.003,-87C62.0277,-87 70.9665,-87 79.5309,-87"/>
<polygon fill="#000000" stroke="#000000" points="79.7051,-90.5001 89.705,-87 79.705,-83.5001 79.7051,-90.5001"/>
</g>
</g>
</svg>
